<svg width="24" height="24" viewBox="0 0 24 24" fill="none" xmlns="http://www.w3.org/2000/svg">
<path d="M6.85714 16.1142C5.63303 17.0757 4.22802 17.7811 2.72571 18.1885C2.56024 18.2485 2.41727 18.3581 2.31624 18.5022C2.2152 18.6464 2.161 18.8181 2.161 18.9942C2.161 19.1702 2.2152 19.342 2.31624 19.4861C2.41727 19.6303 2.56024 19.7398 2.72571 19.7999C14.5886 24.6685 22.1314 17.1428 20.9829 8.79418L22.9029 4.81704H20.6743C17.8971 1.40561 10.5257 1.57704 11.7429 8.84561C11.7429 8.84561 7.79999 9.54847 2.75999 4.59418C2.64341 4.47908 2.49628 4.3998 2.33603 4.36574C2.17578 4.33167 2.00912 4.34424 1.8558 4.40196C1.70247 4.45968 1.5689 4.56014 1.4709 4.69143C1.3729 4.82272 1.31459 4.97935 1.30285 5.14276C0.769935 7.33335 1.03663 9.64225 2.05491 11.6537C3.0732 13.6651 4.77615 15.2469 6.85714 16.1142Z" stroke="white" stroke-width="2" stroke-linecap="round" stroke-linejoin="round"/>
</svg>
