<svg width="32" height="32" viewBox="0 0 32 32" fill="none" xmlns="http://www.w3.org/2000/svg">
<g clip-path="url(#clip0_452_1835)">
<path d="M18.5156 18.4219C17.599 17.6406 16.5833 17.0417 15.4688 16.625C14.3542 16.2083 13.1979 16 12 16C11.0833 16 10.1979 16.1198 9.34375 16.3594C8.48958 16.599 7.69271 16.9323 6.95312 17.3594C6.21354 17.7865 5.54167 18.3073 4.9375 18.9219C4.33333 19.5365 3.8125 20.2135 3.375 20.9531C2.9375 21.6927 2.59896 22.4896 2.35938 23.3438C2.11979 24.1979 2 25.0833 2 26H0C0 24.75 0.182292 23.5469 0.546875 22.3906C0.911458 21.2344 1.4375 20.1667 2.125 19.1875C2.8125 18.2083 3.625 17.3385 4.5625 16.5781C5.5 15.8177 6.5625 15.2188 7.75 14.7812C6.57292 14.0104 5.65625 13.0417 5 11.875C4.34375 10.7083 4.01042 9.41667 4 8C4 6.89583 4.20833 5.85938 4.625 4.89062C5.04167 3.92188 5.60938 3.07292 6.32812 2.34375C7.04688 1.61458 7.89583 1.04167 8.875 0.625C9.85417 0.208333 10.8958 0 12 0C13.1042 0 14.1406 0.208333 15.1094 0.625C16.0781 1.04167 16.9271 1.60938 17.6562 2.32812C18.3854 3.04688 18.9583 3.89583 19.375 4.875C19.7917 5.85417 20 6.89583 20 8C20 8.6875 19.9167 9.35938 19.75 10.0156C19.5833 10.6719 19.3333 11.2917 19 11.875C18.6667 12.4583 18.276 12.9948 17.8281 13.4844C17.3802 13.974 16.8542 14.4062 16.25 14.7812C16.9271 15.0417 17.5729 15.3594 18.1875 15.7344C18.8021 16.1094 19.3802 16.5312 19.9219 17L18.5156 18.4219ZM6 8C6 8.83333 6.15625 9.60938 6.46875 10.3281C6.78125 11.0469 7.20833 11.6823 7.75 12.2344C8.29167 12.7865 8.92708 13.2188 9.65625 13.5312C10.3854 13.8438 11.1667 14 12 14C12.8229 14 13.599 13.8438 14.3281 13.5312C15.0573 13.2188 15.6927 12.7917 16.2344 12.25C16.776 11.7083 17.2083 11.0729 17.5312 10.3438C17.8542 9.61458 18.0104 8.83333 18 8C18 7.17708 17.8438 6.40104 17.5312 5.67188C17.2188 4.94271 16.7917 4.30729 16.25 3.76562C15.7083 3.22396 15.0677 2.79167 14.3281 2.46875C13.5885 2.14583 12.8125 1.98958 12 2C11.1667 2 10.3906 2.15625 9.67188 2.46875C8.95312 2.78125 8.31771 3.20833 7.76562 3.75C7.21354 4.29167 6.78125 4.93229 6.46875 5.67188C6.15625 6.41146 6 7.1875 6 8ZM27 12C27.6875 12 28.3333 12.1302 28.9375 12.3906C29.5417 12.651 30.0677 13.0104 30.5156 13.4688C30.9635 13.9271 31.3229 14.4583 31.5938 15.0625C31.8646 15.6667 32 16.3125 32 17C32 17.6875 31.8698 18.3333 31.6094 18.9375C31.349 19.5417 30.9896 20.0729 30.5312 20.5312C30.0729 20.9896 29.5417 21.349 28.9375 21.6094C28.3333 21.8698 27.6875 22 27 22C26.7604 22 26.526 21.9844 26.2969 21.9531L17.125 31.125C16.8438 31.4062 16.5208 31.6198 16.1562 31.7656C15.7917 31.9115 15.4062 31.9896 15 32C14.5833 32 14.1927 31.9219 13.8281 31.7656C13.4635 31.6094 13.1458 31.3958 12.875 31.125C12.6042 30.8542 12.3906 30.5365 12.2344 30.1719C12.0781 29.8073 12 29.4167 12 29C12 28.6042 12.0729 28.224 12.2188 27.8594C12.3646 27.4948 12.5833 27.1667 12.875 26.875L22.0469 17.7031C22.0156 17.474 22 17.2396 22 17C22 16.3125 22.1302 15.6667 22.3906 15.0625C22.651 14.4583 23.0052 13.9323 23.4531 13.4844C23.901 13.0365 24.4323 12.6771 25.0469 12.4062C25.6615 12.1354 26.3125 12 27 12ZM27 20C27.4167 20 27.8073 19.9219 28.1719 19.7656C28.5365 19.6094 28.8542 19.3958 29.125 19.125C29.3958 18.8542 29.6094 18.5365 29.7656 18.1719C29.9219 17.8073 30 17.4167 30 17C30 16.5729 29.901 16.1458 29.7031 15.7188L27.4219 18H26V16.5781L28.2812 14.2969C27.8542 14.099 27.4271 14 27 14C26.5833 14 26.1927 14.0781 25.8281 14.2344C25.4635 14.3906 25.1458 14.6042 24.875 14.875C24.6042 15.1458 24.3906 15.4635 24.2344 15.8281C24.0781 16.1927 24 16.5833 24 17C24 17.4271 24.099 17.8542 24.2969 18.2812L14.2969 28.2969C14.099 28.4948 14 28.7292 14 29C14 29.2708 14.099 29.5052 14.2969 29.7031C14.4948 29.901 14.7292 30 15 30C15.2708 30 15.5052 29.901 15.7031 29.7031L25.7188 19.7031C26.1458 19.901 26.5729 20 27 20Z" fill="#FF5208"/>
</g>
<defs>
<clipPath id="clip0_452_1835">
<rect width="32" height="32" fill="white"/>
</clipPath>
</defs>
</svg>
