<svg width="451" height="160" viewBox="0 0 451 160" fill="none" xmlns="http://www.w3.org/2000/svg">
<path d="M0.24 23.6C0.24 19.2053 1.22133 15.28 3.184 11.824C5.18933 8.32533 7.89867 5.616 11.312 3.696C14.768 1.73333 18.6293 0.751999 22.896 0.751999C27.888 0.751999 32.2613 2.032 36.016 4.592C39.7707 7.152 42.3947 10.6933 43.888 15.216H33.584C32.56 13.0827 31.1093 11.4827 29.232 10.416C27.3973 9.34933 25.264 8.816 22.832 8.816C20.2293 8.816 17.904 9.43466 15.856 10.672C13.8507 11.8667 12.272 13.5733 11.12 15.792C10.0107 18.0107 9.456 20.6133 9.456 23.6C9.456 26.544 10.0107 29.1467 11.12 31.408C12.272 33.6267 13.8507 35.3547 15.856 36.592C17.904 37.7867 20.2293 38.384 22.832 38.384C25.264 38.384 27.3973 37.8507 29.232 36.784C31.1093 35.6747 32.56 34.0533 33.584 31.92H43.888C42.3947 36.4853 39.7707 40.048 36.016 42.608C32.304 45.1253 27.9307 46.384 22.896 46.384C18.6293 46.384 14.768 45.424 11.312 43.504C7.89867 41.5413 5.18933 38.832 3.184 35.376C1.22133 31.92 0.24 27.9947 0.24 23.6ZM67.285 46.576C63.8717 46.576 60.7997 45.8293 58.069 44.336C55.3383 42.8 53.1837 40.6453 51.605 37.872C50.069 35.0987 49.301 31.8987 49.301 28.272C49.301 24.6453 50.0903 21.4453 51.669 18.672C53.2903 15.8987 55.4877 13.7653 58.261 12.272C61.0343 10.736 64.1277 9.968 67.541 9.968C70.9543 9.968 74.0477 10.736 76.821 12.272C79.5943 13.7653 81.7703 15.8987 83.349 18.672C84.9703 21.4453 85.781 24.6453 85.781 28.272C85.781 31.8987 84.949 35.0987 83.285 37.872C81.6637 40.6453 79.445 42.8 76.629 44.336C73.8557 45.8293 70.741 46.576 67.285 46.576ZM67.285 38.768C68.9063 38.768 70.421 38.384 71.829 37.616C73.2797 36.8053 74.4317 35.6107 75.285 34.032C76.1383 32.4533 76.565 30.5333 76.565 28.272C76.565 24.9013 75.669 22.32 73.877 20.528C72.1277 18.6933 69.973 17.776 67.413 17.776C64.853 17.776 62.6983 18.6933 60.949 20.528C59.2423 22.32 58.389 24.9013 58.389 28.272C58.389 31.6427 59.221 34.2453 60.885 36.08C62.5917 37.872 64.725 38.768 67.285 38.768ZM112.002 10.032C116.226 10.032 119.639 11.376 122.242 14.064C124.844 16.7093 126.146 20.4213 126.146 25.2V46H117.186V26.416C117.186 23.6 116.482 21.4453 115.074 19.952C113.666 18.416 111.746 17.648 109.314 17.648C106.839 17.648 104.876 18.416 103.426 19.952C102.018 21.4453 101.314 23.6 101.314 26.416V46H92.3535V10.544H101.314V14.96C102.508 13.424 104.023 12.2293 105.858 11.376C107.735 10.48 109.783 10.032 112.002 10.032ZM154.314 10.032C158.538 10.032 161.951 11.376 164.554 14.064C167.157 16.7093 168.458 20.4213 168.458 25.2V46H159.498V26.416C159.498 23.6 158.794 21.4453 157.386 19.952C155.978 18.416 154.058 17.648 151.626 17.648C149.151 17.648 147.189 18.416 145.738 19.952C144.33 21.4453 143.626 23.6 143.626 26.416V46H134.666V10.544H143.626V14.96C144.821 13.424 146.335 12.2293 148.17 11.376C150.047 10.48 152.095 10.032 154.314 10.032ZM209.939 27.504C209.939 28.784 209.853 29.936 209.683 30.96H183.763C183.976 33.52 184.872 35.5253 186.451 36.976C188.029 38.4267 189.971 39.152 192.275 39.152C195.603 39.152 197.971 37.7227 199.379 34.864H209.043C208.019 38.2773 206.056 41.0933 203.155 43.312C200.253 45.488 196.691 46.576 192.467 46.576C189.053 46.576 185.981 45.8293 183.251 44.336C180.563 42.8 178.451 40.6453 176.915 37.872C175.421 35.0987 174.674 31.8987 174.674 28.272C174.674 24.6027 175.421 21.3813 176.915 18.608C178.408 15.8347 180.499 13.7013 183.187 12.208C185.875 10.7147 188.968 9.968 192.467 9.968C195.837 9.968 198.845 10.6933 201.491 12.144C204.179 13.5947 206.248 15.664 207.699 18.352C209.192 20.9973 209.939 24.048 209.939 27.504ZM200.659 24.944C200.616 22.64 199.784 20.8053 198.163 19.44C196.541 18.032 194.557 17.328 192.211 17.328C189.992 17.328 188.115 18.0107 186.579 19.376C185.085 20.6987 184.168 22.5547 183.827 24.944H200.659ZM214.174 28.272C214.174 24.6027 214.921 21.4027 216.415 18.672C217.908 15.8987 219.977 13.7653 222.623 12.272C225.268 10.736 228.297 9.968 231.711 9.968C236.105 9.968 239.732 11.0773 242.591 13.296C245.492 15.472 247.433 18.544 248.415 22.512H238.751C238.239 20.976 237.364 19.7813 236.127 18.928C234.932 18.032 233.439 17.584 231.647 17.584C229.087 17.584 227.06 18.5227 225.567 20.4C224.073 22.2347 223.327 24.8587 223.327 28.272C223.327 31.6427 224.073 34.2667 225.567 36.144C227.06 37.9787 229.087 38.896 231.647 38.896C235.273 38.896 237.641 37.2747 238.751 34.032H248.415C247.433 37.872 245.492 40.9227 242.591 43.184C239.689 45.4453 236.063 46.576 231.711 46.576C228.297 46.576 225.268 45.8293 222.623 44.336C219.977 42.8 217.908 40.6667 216.415 37.936C214.921 35.1627 214.174 31.9413 214.174 28.272ZM265.411 17.904V35.056C265.411 36.2507 265.688 37.1253 266.243 37.68C266.84 38.192 267.821 38.448 269.187 38.448H273.347V46H267.715C260.163 46 256.387 42.3307 256.387 34.992V17.904H252.163V10.544H256.387V1.776H265.411V10.544H273.347V17.904H265.411ZM283.759 46.448C282.138 46.448 280.794 45.9573 279.727 44.976C278.703 43.952 278.191 42.6933 278.191 41.2C278.191 39.7067 278.703 38.4693 279.727 37.488C280.794 36.464 282.138 35.952 283.759 35.952C285.338 35.952 286.639 36.464 287.663 37.488C288.687 38.4693 289.199 39.7067 289.199 41.2C289.199 42.6933 288.687 43.952 287.663 44.976C286.639 45.9573 285.338 46.448 283.759 46.448ZM178.816 97.328V104.56H166.912V142H157.952V104.56H146.048V97.328H178.816ZM201.098 142.576C197.684 142.576 194.612 141.829 191.882 140.336C189.151 138.8 186.996 136.645 185.418 133.872C183.882 131.099 183.114 127.899 183.114 124.272C183.114 120.645 183.903 117.445 185.482 114.672C187.103 111.899 189.3 109.765 192.074 108.272C194.847 106.736 197.94 105.968 201.354 105.968C204.767 105.968 207.86 106.736 210.634 108.272C213.407 109.765 215.583 111.899 217.162 114.672C218.783 117.445 219.594 120.645 219.594 124.272C219.594 127.899 218.762 131.099 217.097 133.872C215.476 136.645 213.258 138.8 210.442 140.336C207.668 141.829 204.554 142.576 201.098 142.576ZM201.098 134.768C202.719 134.768 204.234 134.384 205.642 133.616C207.092 132.805 208.244 131.611 209.098 130.032C209.951 128.453 210.378 126.533 210.378 124.272C210.378 120.901 209.482 118.32 207.69 116.528C205.94 114.693 203.786 113.776 201.226 113.776C198.666 113.776 196.511 114.693 194.762 116.528C193.055 118.32 192.202 120.901 192.202 124.272C192.202 127.643 193.034 130.245 194.698 132.08C196.404 133.872 198.538 134.768 201.098 134.768ZM240.054 105.968C242.699 105.968 245.025 106.501 247.03 107.568C249.035 108.592 250.614 109.936 251.766 111.6V106.544H260.79V142.256C260.79 145.541 260.129 148.464 258.806 151.024C257.483 153.627 255.499 155.675 252.854 157.168C250.209 158.704 247.009 159.472 243.254 159.472C238.219 159.472 234.081 158.299 230.838 155.952C227.638 153.605 225.825 150.405 225.398 146.352H234.294C234.763 147.973 235.766 149.253 237.302 150.192C238.881 151.173 240.779 151.664 242.998 151.664C245.601 151.664 247.713 150.875 249.334 149.296C250.955 147.76 251.766 145.413 251.766 142.256V136.752C250.614 138.416 249.014 139.803 246.966 140.912C244.961 142.021 242.657 142.576 240.054 142.576C237.067 142.576 234.337 141.808 231.862 140.272C229.387 138.736 227.425 136.581 225.974 133.808C224.566 130.992 223.862 127.771 223.862 124.144C223.862 120.56 224.566 117.381 225.974 114.608C227.425 111.835 229.366 109.701 231.798 108.208C234.273 106.715 237.025 105.968 240.054 105.968ZM251.766 124.272C251.766 122.096 251.339 120.24 250.486 118.704C249.633 117.125 248.481 115.931 247.03 115.12C245.579 114.267 244.022 113.84 242.358 113.84C240.694 113.84 239.158 114.245 237.75 115.056C236.342 115.867 235.19 117.061 234.294 118.64C233.441 120.176 233.014 122.011 233.014 124.144C233.014 126.277 233.441 128.155 234.294 129.776C235.19 131.355 236.342 132.571 237.75 133.424C239.201 134.277 240.737 134.704 242.358 134.704C244.022 134.704 245.579 134.299 247.03 133.488C248.481 132.635 249.633 131.44 250.486 129.904C251.339 128.325 251.766 126.448 251.766 124.272ZM302.501 123.504C302.501 124.784 302.416 125.936 302.245 126.96H276.325C276.538 129.52 277.434 131.525 279.013 132.976C280.592 134.427 282.533 135.152 284.837 135.152C288.165 135.152 290.533 133.723 291.941 130.864H301.605C300.581 134.277 298.618 137.093 295.717 139.312C292.816 141.488 289.253 142.576 285.029 142.576C281.616 142.576 278.544 141.829 275.813 140.336C273.125 138.8 271.013 136.645 269.477 133.872C267.984 131.099 267.237 127.899 267.237 124.272C267.237 120.603 267.984 117.381 269.477 114.608C270.97 111.835 273.061 109.701 275.749 108.208C278.437 106.715 281.53 105.968 285.029 105.968C288.4 105.968 291.408 106.693 294.053 108.144C296.741 109.595 298.81 111.664 300.261 114.352C301.754 116.997 302.501 120.048 302.501 123.504ZM293.221 120.944C293.178 118.64 292.346 116.805 290.725 115.44C289.104 114.032 287.12 113.328 284.773 113.328C282.554 113.328 280.677 114.011 279.141 115.376C277.648 116.699 276.73 118.555 276.389 120.944H293.221ZM319.473 113.904V131.056C319.473 132.251 319.75 133.125 320.305 133.68C320.902 134.192 321.884 134.448 323.249 134.448H327.409V142H321.777C314.225 142 310.449 138.331 310.449 130.992V113.904H306.225V106.544H310.449V97.776H319.473V106.544H327.409V113.904H319.473ZM353.822 106.032C356.51 106.032 358.899 106.629 360.99 107.824C363.08 108.976 364.702 110.704 365.854 113.008C367.048 115.269 367.646 118 367.646 121.2V142H358.686V122.416C358.686 119.6 357.982 117.445 356.574 115.952C355.166 114.416 353.246 113.648 350.814 113.648C348.339 113.648 346.376 114.416 344.926 115.952C343.518 117.445 342.814 119.6 342.814 122.416V142H333.854V94.64H342.814V110.96C343.966 109.424 345.502 108.229 347.422 107.376C349.342 106.48 351.475 106.032 353.822 106.032ZM409.126 123.504C409.126 124.784 409.041 125.936 408.87 126.96H382.95C383.163 129.52 384.059 131.525 385.638 132.976C387.217 134.427 389.158 135.152 391.462 135.152C394.79 135.152 397.158 133.723 398.566 130.864H408.23C407.206 134.277 405.243 137.093 402.342 139.312C399.441 141.488 395.878 142.576 391.654 142.576C388.241 142.576 385.169 141.829 382.438 140.336C379.75 138.8 377.638 136.645 376.102 133.872C374.609 131.099 373.862 127.899 373.862 124.272C373.862 120.603 374.609 117.381 376.102 114.608C377.595 111.835 379.686 109.701 382.374 108.208C385.062 106.715 388.155 105.968 391.654 105.968C395.025 105.968 398.033 106.693 400.678 108.144C403.366 109.595 405.435 111.664 406.886 114.352C408.379 116.997 409.126 120.048 409.126 123.504ZM399.846 120.944C399.803 118.64 398.971 116.805 397.35 115.44C395.729 114.032 393.745 113.328 391.398 113.328C389.179 113.328 387.302 114.011 385.766 115.376C384.273 116.699 383.355 118.555 383.014 120.944H399.846ZM424.626 112.048C425.778 110.171 427.271 108.699 429.106 107.632C430.983 106.565 433.117 106.032 435.506 106.032V115.44H433.138C430.322 115.44 428.189 116.101 426.738 117.424C425.33 118.747 424.626 121.051 424.626 124.336V142H415.666V106.544H424.626V112.048ZM445.509 142.448C443.888 142.448 442.544 141.957 441.477 140.976C440.453 139.952 439.941 138.693 439.941 137.2C439.941 135.707 440.453 134.469 441.477 133.488C442.544 132.464 443.888 131.952 445.509 131.952C447.088 131.952 448.389 132.464 449.413 133.488C450.437 134.469 450.949 135.707 450.949 137.2C450.949 138.693 450.437 139.952 449.413 140.976C448.389 141.957 447.088 142.448 445.509 142.448Z" fill="#3300FF"/>
<path d="M17.84 142.448C14.7253 142.448 11.9093 141.915 9.392 140.848C6.91733 139.781 4.95467 138.245 3.504 136.24C2.05333 134.235 1.30667 131.867 1.264 129.136H10.864C10.992 130.971 11.632 132.421 12.784 133.488C13.9787 134.555 15.6 135.088 17.648 135.088C19.7387 135.088 21.3813 134.597 22.576 133.616C23.7707 132.592 24.368 131.269 24.368 129.648C24.368 128.325 23.9627 127.237 23.152 126.384C22.3413 125.531 21.3173 124.869 20.08 124.4C18.8853 123.888 17.2213 123.333 15.088 122.736C12.1867 121.883 9.81867 121.051 7.984 120.24C6.192 119.387 4.63467 118.128 3.312 116.464C2.032 114.757 1.392 112.496 1.392 109.68C1.392 107.035 2.05333 104.731 3.376 102.768C4.69867 100.805 6.55467 99.312 8.944 98.288C11.3333 97.2213 14.064 96.688 17.136 96.688C21.744 96.688 25.4773 97.8187 28.336 100.08C31.2373 102.299 32.8373 105.413 33.136 109.424H23.28C23.1947 107.888 22.5333 106.629 21.296 105.648C20.1013 104.624 18.5013 104.112 16.496 104.112C14.7467 104.112 13.3387 104.56 12.272 105.456C11.248 106.352 10.736 107.653 10.736 109.36C10.736 110.555 11.12 111.557 11.888 112.368C12.6987 113.136 13.68 113.776 14.832 114.288C16.0267 114.757 17.6907 115.312 19.824 115.952C22.7253 116.805 25.0933 117.659 26.928 118.512C28.7627 119.365 30.3413 120.645 31.664 122.352C32.9867 124.059 33.648 126.299 33.648 129.072C33.648 131.461 33.0293 133.68 31.792 135.728C30.5547 137.776 28.7413 139.419 26.352 140.656C23.9627 141.851 21.1253 142.448 17.84 142.448ZM74.376 123.504C74.376 124.784 74.2907 125.936 74.12 126.96H48.2C48.4133 129.52 49.3093 131.525 50.888 132.976C52.4667 134.427 54.408 135.152 56.712 135.152C60.04 135.152 62.408 133.723 63.816 130.864H73.48C72.456 134.277 70.4933 137.093 67.592 139.312C64.6907 141.488 61.128 142.576 56.904 142.576C53.4907 142.576 50.4187 141.829 47.688 140.336C45 138.8 42.888 136.645 41.352 133.872C39.8587 131.099 39.112 127.899 39.112 124.272C39.112 120.603 39.8587 117.381 41.352 114.608C42.8453 111.835 44.936 109.701 47.624 108.208C50.312 106.715 53.4053 105.968 56.904 105.968C60.2747 105.968 63.2827 106.693 65.928 108.144C68.616 109.595 70.6853 111.664 72.136 114.352C73.6293 116.997 74.376 120.048 74.376 123.504ZM65.096 120.944C65.0533 118.64 64.2213 116.805 62.6 115.44C60.9787 114.032 58.9947 113.328 56.648 113.328C54.4293 113.328 52.552 114.011 51.016 115.376C49.5227 116.699 48.6053 118.555 48.264 120.944H65.096ZM89.876 94.64V142H80.916V94.64H89.876ZM107.689 94.64V142H98.7285V94.64H107.689ZM120.509 142.448C118.888 142.448 117.544 141.957 116.477 140.976C115.453 139.952 114.941 138.693 114.941 137.2C114.941 135.707 115.453 134.469 116.477 133.488C117.544 132.464 118.888 131.952 120.509 131.952C122.088 131.952 123.389 132.464 124.413 133.488C125.437 134.469 125.949 135.707 125.949 137.2C125.949 138.693 125.437 139.952 124.413 140.976C123.389 141.957 122.088 142.448 120.509 142.448Z" fill="black"/>
<path d="M337.01 23.088C339.527 23.5573 341.597 24.816 343.218 26.864C344.839 28.912 345.65 31.2587 345.65 33.904C345.65 36.2933 345.053 38.4053 343.858 40.24C342.706 42.032 341.021 43.44 338.802 44.464C336.583 45.488 333.959 46 330.93 46H311.666V1.328H330.098C333.127 1.328 335.73 1.81867 337.906 2.8C340.125 3.78133 341.789 5.14667 342.898 6.896C344.05 8.64533 344.626 10.6293 344.626 12.848C344.626 15.4507 343.922 17.6267 342.514 19.376C341.149 21.1253 339.314 22.3627 337.01 23.088ZM320.626 19.76H328.818C330.951 19.76 332.594 19.2907 333.746 18.352C334.898 17.3707 335.474 15.984 335.474 14.192C335.474 12.4 334.898 11.0133 333.746 10.032C332.594 9.05066 330.951 8.56 328.818 8.56H320.626V19.76ZM329.65 38.704C331.826 38.704 333.511 38.192 334.706 37.168C335.943 36.144 336.562 34.6933 336.562 32.816C336.562 30.896 335.922 29.4027 334.642 28.336C333.362 27.2267 331.634 26.672 329.458 26.672H320.626V38.704H329.65ZM386.263 10.544V46H377.239V41.52C376.087 43.056 374.572 44.272 372.695 45.168C370.86 46.0213 368.855 46.448 366.679 46.448C363.906 46.448 361.452 45.872 359.319 44.72C357.186 43.5253 355.5 41.7973 354.263 39.536C353.068 37.232 352.471 34.5013 352.471 31.344V10.544H361.431V30.064C361.431 32.88 362.135 35.056 363.543 36.592C364.951 38.0853 366.871 38.832 369.303 38.832C371.778 38.832 373.719 38.0853 375.127 36.592C376.535 35.056 377.239 32.88 377.239 30.064V10.544H386.263ZM429.024 10.544L407.072 62.768H397.536L405.216 45.104L391.008 10.544H401.056L410.208 35.312L419.488 10.544H429.024ZM437.822 46.448C436.2 46.448 434.856 45.9573 433.79 44.976C432.766 43.952 432.254 42.6933 432.254 41.2C432.254 39.7067 432.766 38.4693 433.79 37.488C434.856 36.464 436.2 35.952 437.822 35.952C439.4 35.952 440.702 36.464 441.726 37.488C442.75 38.4693 443.262 39.7067 443.262 41.2C443.262 42.6933 442.75 43.952 441.726 44.976C440.702 45.9573 439.4 46.448 437.822 46.448Z" fill="#1A1A1A"/>
</svg>
