<svg width="171" height="40" viewBox="0 0 171 40" fill="none" xmlns="http://www.w3.org/2000/svg">
<path d="M31.7483 31.58C31.7123 31.904 30.7403 32.84 30.4883 32.192C27.9683 25.748 23.8283 14.264 20.9483 7.892C17.8883 22.112 9.50025 36.548 1.07625 33.812C0.75225 33.596 0.68025 33.272 1.04025 33.344C11.9123 35.36 18.6443 14.264 19.8323 6.776C19.8683 6.272 19.8323 5.48 19.8683 5.048C19.8323 5.012 19.8683 4.976 19.8323 4.94C19.8683 4.436 21.1643 5.012 21.3803 5.66C22.8203 9.764 27.6803 21.356 30.6323 29.24C31.0283 25.424 31.8923 20.312 32.3242 17.36C32.4323 16.388 32.6123 15.416 32.7923 14.48C33.7283 9.548 35.7803 1.376 39.7763 1.988C40.2083 2.024 40.1003 2.42 39.8843 2.456C37.0763 2.924 35.2403 7.892 34.0163 14.876C33.9083 15.776 33.7283 16.604 33.6203 17.504C33.0803 21.068 32.1083 27.044 31.7483 31.58ZM44.0138 25.676C41.8898 25.784 39.1538 25.388 38.4338 23.156C38.3258 22.832 38.2538 22.472 38.2538 22.112C38.2538 20.528 39.3338 18.908 41.0978 18.836C42.2138 18.836 43.2578 19.916 42.8618 20.96C42.3938 22.112 40.8458 22.976 39.5858 22.976C39.6938 23.66 40.9538 24.812 42.2138 24.812C45.5978 24.812 48.1178 22.292 49.6298 20.708C50.4578 19.844 50.3138 20.672 49.8098 21.68C48.8018 23.768 46.4978 25.532 44.0138 25.676ZM41.6738 20.06C40.9178 19.304 39.5138 21.212 39.5498 22.112C41.0618 21.428 42.0698 20.456 41.6738 20.06ZM57.5546 21.068C57.0866 20.276 57.1946 19.7 57.5546 19.448C58.2386 19.052 58.7786 20.096 58.7066 20.672C59.2826 20.96 60.0026 21.104 60.7946 21.104C61.8386 21.104 63.0266 20.852 64.2506 20.348C65.2586 20.024 64.5026 20.996 63.9266 21.32C62.8106 21.932 61.6946 22.22 60.6146 22.22C59.9666 22.22 59.3906 22.112 58.7786 21.932C58.7786 23.048 58.2026 24.884 56.7626 24.956C55.8986 25.028 54.6026 24.308 53.8826 23.228C53.4866 24.308 52.7666 25.46 51.6146 25.46C51.2906 25.46 50.8946 25.352 50.4986 25.136C49.9226 24.74 49.6346 24.164 49.4906 23.732C49.3106 23.228 49.2386 22.688 49.2746 22.148C49.3106 21.104 49.9226 19.34 50.5706 18.548C50.6426 18.332 51.0026 18.404 51.2906 18.62C51.5426 18.872 51.7226 19.196 51.5426 19.376C51.0746 20.096 50.3906 21.572 50.3906 22.904C50.3906 23.264 50.4266 23.588 50.5346 23.912C50.6786 24.416 51.2186 24.488 51.5066 24.38C52.4066 24.056 53.2346 21.644 53.3426 21.14C53.3786 20.816 53.3426 20.744 53.4146 20.672C53.5226 20.132 54.6386 20.672 54.5666 21.248C54.6386 21.32 54.6026 21.392 54.5666 21.572C54.6746 22.256 54.7466 23.264 55.5026 23.732C57.1226 24.812 57.5906 22.148 57.5546 21.068ZM111.545 30.536C112.013 30.68 112.301 31.148 112.337 31.508C112.301 31.652 112.265 31.688 112.085 31.724L111.941 31.544C106.541 30.824 93.9408 30.392 87.5328 30.284C86.4528 32.3 84.9048 33.884 82.8528 33.884C81.4128 33.884 79.7568 33.164 79.3608 31.652C79.1808 30.932 79.8288 29.384 81.0888 29.204C81.9168 29.06 82.7448 29.024 83.7528 29.024C84.6168 29.024 85.5888 29.06 86.8128 29.06C87.2448 27.584 87.6408 26.324 87.8928 24.02L87.7848 24.056C87.1008 24.2 86.3808 24.272 85.6248 24.272C85.0488 24.272 84.4368 24.236 83.8248 24.128C79.6128 23.408 76.8048 20.384 76.8048 16.568C76.8048 15.596 76.9848 14.624 77.3448 13.58C77.4888 13.22 78.1368 12.572 78.2808 12.752C78.4608 12.968 78.2448 13.364 78.1368 13.724C77.8128 14.552 77.6688 15.38 77.6688 16.208C77.6688 19.484 80.0448 22.58 84.0768 23.12C85.1568 23.264 87.1728 22.94 88.0368 22.724L88.1088 21.968C88.1448 21.428 88.1448 20.852 88.1448 20.24C88.1448 18.008 88.0008 15.02 87.9648 9.944C87.9648 6.776 87.7848 0.907999 92.1768 0.512C97.1808 0.259999 99.3048 6.236 99.0528 10.556C98.7288 16.28 95.0568 21.608 90.0168 23.48L89.4408 23.66L89.4048 24.02C89.2968 25.388 88.8648 27.296 88.1088 29.06C94.7328 29.168 106.973 29.816 111.545 30.536ZM89.5848 22.184C93.9048 20.348 97.1088 15.668 97.6848 10.592C97.7208 10.232 97.7568 9.836 97.7568 9.44C97.7568 5.912 96.2448 1.124 92.2128 1.628C89.5128 1.916 89.3328 5.912 89.3328 8.684V9.908C89.3328 12.788 89.6568 15.668 89.6568 18.8C89.6568 19.52 89.6208 20.24 89.5848 20.996L89.5128 22.22L89.5848 22.184ZM82.8888 32.696C84.0768 32.3 85.1928 31.364 86.0208 30.32C85.4808 30.284 85.0128 30.284 84.5448 30.284C82.9608 30.284 81.8088 30.392 81.1608 30.464C80.1168 30.572 80.1528 31.112 80.2248 31.508C80.4408 32.48 81.5928 33.056 82.8888 32.696ZM103.322 24.416C102.782 23.84 102.53 22.616 102.53 21.428C102.53 20.312 102.746 19.196 103.142 18.584C103.178 18.404 103.538 18.368 103.97 18.476C104.366 18.62 104.582 18.908 104.546 19.088C104.258 19.376 103.538 23.444 104.078 23.912C104.366 24.128 104.726 24.236 105.122 24.236C107.354 24.236 111.17 21.356 112.25 20.276C112.394 20.132 112.754 20.348 112.322 21.14C111.638 22.4 108.362 25.244 105.878 25.352C104.978 25.388 104.006 25.172 103.322 24.416ZM104.078 16.064C103.646 15.92 103.43 15.596 103.61 15.452C103.682 15.344 103.934 14.624 104.006 14.444L104.078 13.904C104.078 13.688 104.474 13.616 104.834 13.76C105.302 13.868 105.59 14.156 105.518 14.336C105.518 14.48 105.518 14.732 105.41 14.948C105.338 15.128 105.05 15.92 104.942 16.1C104.834 16.244 104.402 16.244 104.078 16.064ZM111.682 25.316C111.25 25.1 110.926 24.2 111.718 24.38C112.042 24.452 112.438 24.488 112.906 24.488C114.058 24.488 115.498 24.308 116.434 24.092C115.534 23.624 114.166 22.94 113.446 22.544C112.51 22.004 111.502 21.644 111.358 20.564C111.07 18.656 114.994 17.504 116.83 17.252C117.406 17.18 118.126 17.864 117.838 18.224C116.506 18.692 113.23 19.304 112.834 20.24C112.618 20.744 113.446 21.104 114.166 21.536C115.534 22.292 116.614 22.832 117.334 23.408C118.126 24.092 117.442 25.1 116.506 25.352C115.858 25.532 114.922 25.64 113.986 25.64C113.086 25.64 112.222 25.532 111.682 25.316ZM121.642 35.504C121.246 34.244 121.102 28.664 121.102 23.84C121.102 21.752 121.138 19.808 121.174 18.404C121.21 16.712 121.282 14.588 121.39 12.392C118.402 12.644 115.594 12.86 112.714 13.364C112.03 13.472 111.274 12.536 111.886 12.392C114.442 11.924 116.998 11.636 121.426 11.276C121.57 8.468 121.75 5.624 121.894 3.392C121.858 2.816 123.262 3.032 123.37 3.752C123.118 5.552 122.902 8.36 122.758 11.168C123.082 11.168 123.442 11.132 123.802 11.096C126.862 10.88 130.966 10.556 134.494 10.556C136.546 10.556 138.418 10.664 139.714 10.952C140.038 11.096 140.398 11.456 140.542 11.672C140.578 11.96 140.398 12.104 140.11 12.068C138.49 11.744 136.474 11.636 134.314 11.636C130.462 11.636 126.25 11.996 123.514 12.212C123.226 12.248 122.974 12.284 122.686 12.284L122.434 18.332C122.398 20.636 122.29 24.02 122.29 27.296C122.29 30.968 122.434 34.496 122.902 36.188C123.01 37.016 121.894 36.26 121.642 35.504ZM126.877 24.416C126.337 23.84 126.085 22.616 126.085 21.428C126.085 20.312 126.301 19.196 126.697 18.584C126.733 18.404 127.093 18.368 127.525 18.476C127.921 18.62 128.137 18.908 128.101 19.088C127.813 19.376 127.093 23.444 127.633 23.912C127.921 24.128 128.281 24.236 128.677 24.236C130.909 24.236 134.725 21.356 135.805 20.276C135.949 20.132 136.309 20.348 135.877 21.14C135.193 22.4 131.917 25.244 129.433 25.352C128.533 25.388 127.561 25.172 126.877 24.416ZM127.633 16.064C127.201 15.92 126.985 15.596 127.165 15.452C127.237 15.344 127.489 14.624 127.561 14.444L127.633 13.904C127.633 13.688 128.029 13.616 128.389 13.76C128.857 13.868 129.145 14.156 129.073 14.336C129.073 14.48 129.073 14.732 128.965 14.948C128.893 15.128 128.605 15.92 128.497 16.1C128.389 16.244 127.957 16.244 127.633 16.064ZM135.093 24.272C135.057 23.984 135.021 23.624 135.093 23.192L135.453 19.592C135.453 19.34 135.813 19.304 136.173 19.448C136.461 19.628 136.785 19.952 136.749 20.168L136.677 21.392C137.901 20.492 140.493 19.196 142.509 19.412C143.193 19.484 143.841 20.132 143.841 20.672C143.841 21.284 143.445 22.652 143.913 23.336C144.273 23.624 144.669 23.732 145.137 23.732C147.369 23.732 150.501 20.888 151.653 20.312C151.797 20.24 151.941 21.032 151.401 21.716C150.537 22.832 148.197 24.74 145.677 24.74C144.633 24.74 143.481 24.308 142.833 23.372C142.473 22.832 142.365 22.22 142.365 21.572C142.365 21.176 142.401 20.78 142.473 20.348C139.809 20.636 137.073 22.364 136.389 23.876L136.353 24.704C136.389 25.172 135.129 24.848 135.093 24.272ZM151.274 38.024C150.302 37.016 149.726 35.72 149.906 34.424C150.446 31.652 153.326 28.268 156.962 25.568L157.862 24.92L157.826 24.776L157.754 21.824V21.644L157.646 21.716C157.322 22.112 156.89 22.544 156.422 22.94C155.81 23.444 155.198 23.912 154.586 24.2C154.262 24.308 153.866 24.452 153.398 24.452C153.074 24.452 152.714 24.38 152.354 24.2C152.21 24.128 152.102 24.056 152.03 23.984C151.598 23.66 151.238 23.3 150.986 22.94C150.662 22.472 150.518 22.004 150.518 21.572C150.518 21.068 150.698 20.564 151.058 20.204C151.67 19.736 152.354 19.376 153.542 19.376C154.478 19.376 155.666 19.592 156.998 20.096L157.034 20.132L157.106 20.096C157.358 19.772 157.502 19.484 157.61 19.34C157.826 18.98 158.834 19.556 158.87 20.06C158.906 20.132 159.086 21.824 159.122 23.912V24.056L159.158 24.02C160.13 23.444 164.846 21.284 165.53 21.752C165.89 22.004 165.818 22.112 165.53 22.184C164.09 22.616 161.714 23.912 160.202 24.812L159.158 25.532L159.122 25.964L159.014 29.312C158.726 33.848 157.574 38.564 154.442 39.212C153.542 39.392 152.282 39.032 151.274 38.024ZM153.65 38.348C156.782 37.7 157.826 31.148 157.754 26.504L156.998 27.152C153.938 29.672 151.634 32.732 151.238 35.144C151.022 36.26 151.562 37.16 151.994 37.664C152.534 38.168 153.218 38.456 153.65 38.348ZM152.75 23.372C153.002 23.372 153.254 23.3 153.542 23.156C154.046 22.904 154.694 22.472 155.27 21.968L156.062 21.212L156.422 20.816L156.17 20.744C155.486 20.564 154.874 20.456 154.334 20.456C153.362 20.456 152.642 20.744 152.246 21.14C151.958 21.464 151.85 21.788 151.85 22.148C151.85 22.508 151.994 22.868 152.21 23.156L152.462 23.336C152.462 23.336 152.534 23.372 152.75 23.372ZM164.452 25.316C164.02 25.1 163.696 24.2 164.488 24.38C164.812 24.452 165.208 24.488 165.676 24.488C166.828 24.488 168.268 24.308 169.204 24.092C168.304 23.624 166.936 22.94 166.216 22.544C165.28 22.004 164.272 21.644 164.128 20.564C163.84 18.656 167.764 17.504 169.6 17.252C170.176 17.18 170.896 17.864 170.608 18.224C169.276 18.692 166 19.304 165.604 20.24C165.388 20.744 166.216 21.104 166.936 21.536C168.304 22.292 169.384 22.832 170.104 23.408C170.896 24.092 170.212 25.1 169.276 25.352C168.628 25.532 167.692 25.64 166.756 25.64C165.856 25.64 164.992 25.532 164.452 25.316Z" fill="black"/>
</svg>
