<svg width="94" height="34" viewBox="0 0 94 34" fill="none" xmlns="http://www.w3.org/2000/svg">
<path d="M9.42903 18.456C11.877 18.816 16.341 19.248 18.933 21.192C20.193 20.796 21.453 20.472 22.713 20.184C26.061 19.428 27.249 19.356 27.573 19.608C27.753 19.788 27.717 19.824 27.465 19.896L23.037 21.12L19.869 22.056C20.553 22.848 20.949 23.82 20.949 25.044C20.949 29.328 15.333 32.46 10.149 33.324C9.64503 33.396 9.10503 33.468 8.52903 33.468C6.51303 33.468 4.42503 32.82 4.42503 30.66C4.49703 29.544 5.25303 28.392 6.47703 27.312C9.06903 24.972 13.209 23.028 17.601 21.588C15.477 20.256 12.093 19.788 9.57303 19.428C6.08103 18.96 1.86903 17.952 0.933031 14.928C0.681031 14.172 0.573031 13.416 0.573031 12.696C0.573031 8.88 3.59703 5.46 6.94503 3.192C9.68103 1.392 13.029 0.0959988 16.053 0.0959988C17.853 0.0959988 19.545 0.563999 20.877 1.644C21.777 2.544 22.137 3.516 22.137 4.596C22.137 5.964 21.525 7.512 20.697 9.168C20.085 10.356 19.149 10.68 19.509 9.744C20.337 8.052 20.949 6.252 20.949 4.74C20.949 3.732 20.697 2.868 20.049 2.256C19.221 1.608 18.141 1.32 16.917 1.32C13.857 1.32 10.041 3.048 7.98903 4.452C4.31703 6.972 1.79703 9.96 1.79703 13.164C1.79703 13.704 1.86903 14.208 2.01303 14.748C2.62503 17.052 6.26103 18.024 9.42903 18.456ZM19.617 24.864C19.617 23.892 19.257 23.1 18.681 22.452C13.209 24.288 9.68103 26.196 7.52103 28.104C6.08103 29.364 5.46903 30.372 5.46903 31.128C5.46903 32.064 6.47703 32.568 7.98903 32.568C8.56503 32.568 9.21303 32.496 9.93303 32.352C13.965 31.56 19.401 28.896 19.617 24.864ZM31.4006 23.676C29.2766 23.784 26.5406 23.388 25.8206 21.156C25.7126 20.832 25.6406 20.472 25.6406 20.112C25.6406 18.528 26.7206 16.908 28.4846 16.836C29.6006 16.836 30.6446 17.916 30.2486 18.96C29.7806 20.112 28.2326 20.976 26.9726 20.976C27.0806 21.66 28.3406 22.812 29.6006 22.812C32.9846 22.812 35.5046 20.292 37.0166 18.708C37.8446 17.844 37.7006 18.672 37.1966 19.68C36.1886 21.768 33.8846 23.532 31.4006 23.676ZM29.0606 18.06C28.3046 17.304 26.9006 19.212 26.9366 20.112C28.4486 19.428 29.4566 18.456 29.0606 18.06ZM36.8773 22.92C36.7333 22.596 36.6613 21.66 37.1653 17.124C37.1653 16.872 37.5253 16.872 37.8853 17.052C38.2093 17.232 38.4253 17.592 38.4253 17.808L38.3893 19.212C39.2893 18.06 41.9533 15.972 43.9333 16.296C44.7613 16.44 45.2653 17.196 45.0133 17.484C44.5093 18.06 44.0053 17.844 44.0413 17.556L44.0773 17.268C42.2773 17.232 39.2893 19.428 38.4253 21.912C38.3173 22.2 38.3173 22.416 38.1733 23.46C38.2093 23.928 37.0213 23.46 36.8773 22.92ZM48.1209 22.848C47.2209 21.768 46.8249 20.148 46.8249 18.636C46.8249 18.096 46.8609 17.592 46.9689 17.088C47.0049 16.836 47.3289 16.728 47.6889 16.908C47.9049 17.052 48.1929 17.412 48.1209 17.664C47.9769 18.78 48.1209 21.552 48.8409 22.416C49.4889 22.38 50.6409 19.644 51.0009 18.6C50.7849 17.844 51.0729 17.268 51.3969 17.052C51.8289 16.872 52.6209 17.484 52.2969 18.564V18.6C52.9449 18.816 53.7009 18.924 54.4569 18.924C55.6089 18.924 56.7969 18.744 57.7689 18.6C58.7049 18.456 58.0569 19.32 57.2649 19.608C56.6529 19.824 55.3929 20.04 54.2409 20.04C53.3409 20.04 52.4769 19.932 51.9729 19.536C51.5769 20.868 50.6409 22.776 49.7409 23.064C49.1289 23.244 48.6609 23.388 48.1209 22.848ZM57.3459 22.416C56.8059 21.84 56.5539 20.616 56.5539 19.428C56.5539 18.312 56.7699 17.196 57.1659 16.584C57.2019 16.404 57.5619 16.368 57.9939 16.476C58.3899 16.62 58.6059 16.908 58.5699 17.088C58.2819 17.376 57.5619 21.444 58.1019 21.912C58.3899 22.128 58.7499 22.236 59.1459 22.236C61.3779 22.236 65.1939 19.356 66.2739 18.276C66.4179 18.132 66.7779 18.348 66.3459 19.14C65.6619 20.4 62.3859 23.244 59.9019 23.352C59.0019 23.388 58.0299 23.172 57.3459 22.416ZM58.1019 14.064C57.6699 13.92 57.4539 13.596 57.6339 13.452C57.7059 13.344 57.9579 12.624 58.0299 12.444L58.1019 11.904C58.1019 11.688 58.4979 11.616 58.8579 11.76C59.3259 11.868 59.6139 12.156 59.5419 12.336C59.5419 12.48 59.5419 12.732 59.4339 12.948C59.3619 13.128 59.0739 13.92 58.9659 14.1C58.8579 14.244 58.4259 14.244 58.1019 14.064ZM66.6055 19.968C66.2815 21.516 67.2175 22.56 68.8375 22.56C71.8255 22.344 74.4175 20.436 76.5775 18.528C76.7935 18.384 77.0455 18.996 76.7935 19.464C76.2175 20.544 73.8415 23.388 69.4495 23.64C67.3615 23.64 65.3095 22.236 65.4175 19.896C65.4535 18.888 65.8855 17.916 66.7135 17.232C67.2175 16.836 67.8655 16.512 68.6575 16.512C69.0535 16.512 69.5215 16.584 69.9895 16.836C70.4575 17.088 70.7815 17.52 70.8175 17.88C70.8175 18.492 70.0615 18.744 69.7375 18.852C69.3775 18.996 69.0535 18.852 69.3055 18.384C69.3775 18.24 69.5215 17.952 69.5575 17.556C68.2255 17.268 66.8935 18.6 66.6055 19.968ZM81.4279 23.676C79.3039 23.784 76.5679 23.388 75.8479 21.156C75.7399 20.832 75.6679 20.472 75.6679 20.112C75.6679 18.528 76.7479 16.908 78.5119 16.836C79.6279 16.836 80.6719 17.916 80.2759 18.96C79.8079 20.112 78.2599 20.976 76.9999 20.976C77.1079 21.66 78.3679 22.812 79.6279 22.812C83.0119 22.812 85.5319 20.292 87.0439 18.708C87.8719 17.844 87.7279 18.672 87.2239 19.68C86.2159 21.768 83.9119 23.532 81.4279 23.676ZM79.0879 18.06C78.3319 17.304 76.9279 19.212 76.9639 20.112C78.4759 19.428 79.4839 18.456 79.0879 18.06ZM87.1508 23.316C86.7188 23.1 86.3948 22.2 87.1868 22.38C87.5108 22.452 87.9068 22.488 88.3748 22.488C89.5268 22.488 90.9668 22.308 91.9028 22.092C91.0028 21.624 89.6348 20.94 88.9148 20.544C87.9788 20.004 86.9708 19.644 86.8268 18.564C86.5388 16.656 90.4628 15.504 92.2988 15.252C92.8748 15.18 93.5948 15.864 93.3068 16.224C91.9748 16.692 88.6988 17.304 88.3028 18.24C88.0868 18.744 88.9148 19.104 89.6348 19.536C91.0028 20.292 92.0828 20.832 92.8028 21.408C93.5948 22.092 92.9108 23.1 91.9748 23.352C91.3268 23.532 90.3908 23.64 89.4548 23.64C88.5548 23.64 87.6908 23.532 87.1508 23.316Z" fill="black"/>
</svg>
