<svg width="25" height="24" viewBox="0 0 25 24" fill="none" xmlns="http://www.w3.org/2000/svg">
<path d="M16.0859 14.0977C17.1484 14.4648 18.1055 14.9766 18.957 15.6328C19.8086 16.2891 20.5352 17.0547 21.1367 17.9297C21.7383 18.8047 22.1992 19.7539 22.5195 20.7773C22.8398 21.8008 23 22.875 23 24H21.5C21.5 22.7187 21.2734 21.5313 20.8203 20.4375C20.3672 19.3437 19.7344 18.3906 18.9219 17.5781C18.1094 16.7656 17.1602 16.1367 16.0742 15.6914C14.9883 15.2461 13.7969 15.0156 12.5 15C11.6641 15 10.8594 15.1055 10.0859 15.3164C9.3125 15.5273 8.59375 15.8242 7.92969 16.207C7.26562 16.5898 6.66016 17.0547 6.11328 17.6016C5.56641 18.1484 5.10156 18.7539 4.71875 19.418C4.33594 20.082 4.03516 20.8047 3.81641 21.5859C3.59766 22.3672 3.49219 23.1719 3.5 24H2C2 22.875 2.16406 21.8008 2.49219 20.7773C2.82031 19.7539 3.28516 18.8086 3.88672 17.9414C4.48828 17.0742 5.21484 16.3164 6.06641 15.668C6.91797 15.0195 7.875 14.5 8.9375 14.1094C8.32812 13.7812 7.78125 13.3828 7.29688 12.9141C6.8125 12.4453 6.40234 11.9258 6.06641 11.3555C5.73047 10.7852 5.46875 10.1719 5.28125 9.51562C5.09375 8.85938 5 8.1875 5 7.5C5 6.46094 5.19531 5.48828 5.58594 4.58203C5.97656 3.67578 6.51172 2.87891 7.19141 2.19141C7.87109 1.50391 8.66406 0.96875 9.57031 0.585938C10.4766 0.203125 11.4531 0.0078125 12.5 0C13.5391 0 14.5117 0.195313 15.418 0.585938C16.3242 0.976562 17.1211 1.51172 17.8086 2.19141C18.4961 2.87109 19.0312 3.66406 19.4141 4.57031C19.7969 5.47656 19.9922 6.45312 20 7.5C20 8.1875 19.9102 8.85547 19.7305 9.50391C19.5508 10.1523 19.2891 10.7617 18.9453 11.332C18.6016 11.9023 18.1914 12.4219 17.7148 12.8906C17.2383 13.3594 16.6953 13.7617 16.0859 14.0977ZM6.5 7.5C6.5 8.32812 6.65625 9.10547 6.96875 9.83203C7.28125 10.5586 7.71094 11.1914 8.25781 11.7305C8.80469 12.2695 9.44141 12.6992 10.168 13.0195C10.8945 13.3398 11.6719 13.5 12.5 13.5C13.3281 13.5 14.1055 13.3437 14.832 13.0312C15.5586 12.7188 16.1914 12.2891 16.7305 11.7422C17.2695 11.1953 17.6992 10.5586 18.0195 9.83203C18.3398 9.10547 18.5 8.32812 18.5 7.5C18.5 6.67188 18.3437 5.89453 18.0312 5.16797C17.7188 4.44141 17.2891 3.80859 16.7422 3.26953C16.1953 2.73047 15.5586 2.30078 14.832 1.98047C14.1055 1.66016 13.3281 1.5 12.5 1.5C11.6719 1.5 10.8945 1.65625 10.168 1.96875C9.44141 2.28125 8.80859 2.71094 8.26953 3.25781C7.73047 3.80469 7.30078 4.44141 6.98047 5.16797C6.66016 5.89453 6.5 6.67188 6.5 7.5Z" fill="white"/>
</svg>
