<svg width="1260" height="296" viewBox="0 0 1260 296" fill="none" xmlns="http://www.w3.org/2000/svg">
<path d="M96.3297 87.3296L98.7434 103.834L96.0362 104.23L94.3831 92.9262L91.0018 104.966L89.1257 105.241L82.4144 94.6765L84.0675 105.98L81.3603 106.376L78.9466 89.8718L81.8676 89.4446L89.5547 101.54L93.4325 87.7533L96.3297 87.3296ZM108.009 102.697C106.774 102.878 105.617 102.764 104.539 102.356C103.458 101.932 102.558 101.255 101.84 100.325C101.12 99.3793 100.661 98.2336 100.464 96.8879C100.27 95.558 100.39 94.3357 100.826 93.221C101.261 92.1063 101.945 91.1978 102.877 90.4955C103.809 89.7932 104.9 89.3506 106.151 89.1677C107.402 88.9848 108.574 89.0963 109.669 89.5023C110.763 89.9082 111.678 90.5828 112.414 91.5262C113.151 92.4696 113.616 93.6062 113.81 94.9361C114.005 96.266 113.877 97.4894 113.426 98.6064C112.974 99.7235 112.268 100.643 111.307 101.366C110.359 102.071 109.259 102.514 108.009 102.697ZM107.665 100.346C108.361 100.244 108.986 99.9833 109.539 99.5629C110.108 99.1401 110.534 98.5685 110.816 97.848C111.099 97.1275 111.171 96.2923 111.032 95.3424C110.893 94.3925 110.594 93.6197 110.135 93.0238C109.674 92.4121 109.118 91.9841 108.468 91.7396C107.817 91.4951 107.144 91.4238 106.447 91.5257C105.751 91.6275 105.126 91.8887 104.573 92.3091C104.036 92.7273 103.642 93.2943 103.391 94.0101C103.137 94.7102 103.08 95.5351 103.219 96.485C103.425 97.894 103.941 98.9343 104.767 99.6059C105.606 100.259 106.572 100.506 107.665 100.346ZM118.524 89.5656C118.89 88.8651 119.44 88.2592 120.174 87.7476C120.921 87.2179 121.786 86.8813 122.767 86.7377C123.923 86.5687 125.008 86.693 126.023 87.1105C127.038 87.528 127.89 88.2119 128.579 89.1622C129.266 90.0967 129.705 91.221 129.897 92.535C130.089 93.849 129.993 95.0679 129.607 96.1915C129.219 97.2992 128.593 98.2155 127.729 98.9401C126.878 99.6467 125.883 100.083 124.743 100.25C123.73 100.398 122.799 100.332 121.949 100.052C121.116 99.7699 120.424 99.3536 119.875 98.8033L120.152 100.703L117.445 101.099L114.875 83.5259L117.582 83.13L118.524 89.5656ZM127.142 92.9379C127.01 92.0355 126.707 91.2875 126.232 90.694C125.771 90.0823 125.207 89.6554 124.541 89.4132C123.888 89.1529 123.214 89.0737 122.517 89.1756C121.836 89.2751 121.213 89.5442 120.646 89.9828C120.096 90.4191 119.679 90.9974 119.396 91.7179C119.129 92.4361 119.062 93.2464 119.194 94.1488C119.326 95.0512 119.624 95.8162 120.087 96.4437C120.565 97.053 121.129 97.4879 121.782 97.7482C122.45 98.0062 123.125 98.0854 123.806 97.9858C124.502 97.884 125.126 97.6149 125.677 97.1786C126.241 96.7242 126.655 96.13 126.92 95.396C127.2 94.6596 127.274 93.8403 127.142 92.9379ZM132.75 83.7255C132.259 83.7972 131.823 83.6912 131.442 83.4074C131.061 83.1235 130.835 82.7362 130.763 82.2454C130.691 81.7547 130.797 81.3187 131.081 80.9376C131.365 80.5566 131.752 80.3301 132.243 80.2583C132.718 80.1889 133.146 80.2961 133.527 80.5799C133.908 80.8638 134.134 81.2511 134.206 81.7419C134.278 82.2326 134.172 82.6686 133.888 83.0497C133.604 83.4307 133.225 83.656 132.75 83.7255ZM134.333 85.2645L136.247 98.3494L133.54 98.7453L131.626 85.6605L134.333 85.2645ZM139.938 79.8606L142.508 97.4336L139.801 97.8296L137.231 80.2565L139.938 79.8606ZM157.051 88.297C157.123 88.7878 157.156 89.2357 157.151 89.6408L147.153 91.1029C147.385 92.1362 147.896 92.9185 148.685 93.4499C149.474 93.9813 150.375 94.1729 151.389 94.0247C152.845 93.8117 153.785 93.0517 154.208 91.7447L157.129 91.3175C156.91 92.5786 156.334 93.6734 155.402 94.602C154.485 95.5124 153.258 96.0799 151.722 96.3045C150.471 96.4874 149.307 96.3747 148.228 95.9665C147.163 95.5401 146.272 94.862 145.554 93.9321C144.849 92.9841 144.399 91.8372 144.202 90.4915C144.005 89.1459 144.102 87.927 144.492 86.8351C144.895 85.725 145.547 84.8211 146.448 84.1235C147.364 83.4235 148.464 82.9798 149.746 82.7922C150.981 82.6116 152.121 82.7199 153.165 83.1169C154.209 83.5139 155.073 84.1639 155.754 85.0667C156.434 85.9537 156.866 87.0305 157.051 88.297ZM154.1 87.8554C153.939 86.8603 153.466 86.1129 152.681 85.6132C151.897 85.1135 150.99 84.9388 149.961 85.0893C149.027 85.2259 148.271 85.6437 147.694 86.3425C147.115 87.0255 146.836 87.8829 146.858 88.9146L154.1 87.8554ZM176.734 80.5917C176.857 81.4308 176.775 82.2513 176.488 83.0532C176.201 83.8552 175.657 84.5573 174.856 85.1596C174.052 85.7461 172.97 86.1389 171.608 86.338L168.616 86.7756L169.595 93.4723L166.888 93.8683L164.474 77.3638L170.174 76.5303C171.44 76.3451 172.541 76.4104 173.477 76.7264C174.426 77.0242 175.169 77.5139 175.705 78.1954C176.257 78.8747 176.6 79.6735 176.734 80.5917ZM171.285 84.1295C172.314 83.979 173.048 83.6371 173.488 83.1039C173.925 82.5549 174.081 81.8529 173.956 80.998C173.692 79.1932 172.539 78.4401 170.497 78.7388L167.505 79.1764L168.293 84.5671L171.285 84.1295ZM185.834 77.5145C186.832 77.3686 187.75 77.4527 188.588 77.7667C189.442 78.0784 190.152 78.6214 190.718 79.3956C191.3 80.1675 191.678 81.1472 191.851 82.3346L192.98 90.0525L190.296 90.4449L189.227 83.1307C189.055 81.9592 188.632 81.1075 187.956 80.5757C187.277 80.0281 186.432 79.8284 185.418 79.9766C184.405 80.1248 183.644 80.5595 183.135 81.2807C182.64 81.9838 182.477 82.9212 182.649 84.0927L183.718 91.4069L181.011 91.8028L178.441 74.2297L181.148 73.8338L182.027 79.8419C182.405 79.2207 182.921 78.7087 183.573 78.306C184.242 77.901 184.995 77.6372 185.834 77.5145ZM202.14 88.9311C200.905 89.1117 199.749 88.9979 198.67 88.5897C197.589 88.1656 196.69 87.4886 195.972 86.5587C195.251 85.613 194.793 84.4673 194.596 83.1217C194.401 81.7918 194.522 80.5695 194.957 79.4548C195.392 78.3401 196.076 77.4316 197.008 76.7293C197.941 76.027 199.032 75.5844 200.283 75.4015C201.533 75.2186 202.706 75.3301 203.8 75.736C204.894 76.142 205.81 76.8166 206.546 77.76C207.282 78.7034 207.748 79.84 207.942 81.1699C208.136 82.4997 208.008 83.7232 207.557 84.8402C207.106 85.9572 206.4 86.8771 205.438 87.5999C204.49 88.3045 203.391 88.7482 202.14 88.9311ZM201.796 86.5802C202.493 86.4783 203.118 86.2171 203.671 85.7967C204.239 85.3739 204.665 84.8023 204.948 84.0818C205.231 83.3613 205.302 82.5261 205.164 81.5762C205.025 80.6263 204.726 79.8534 204.267 79.2576C203.805 78.6459 203.249 78.2178 202.599 77.9734C201.949 77.7289 201.276 77.6576 200.579 77.7594C199.882 77.8613 199.258 78.1225 198.705 78.5429C198.167 78.9611 197.773 79.528 197.522 80.2439C197.269 80.9439 197.212 81.7689 197.351 82.7188C197.557 84.1278 198.073 85.1681 198.899 85.8397C199.738 86.4931 200.704 86.7399 201.796 86.5802ZM216.234 73.0688C217.263 72.9183 218.212 72.9977 219.082 73.3071C219.968 73.6141 220.702 74.1536 221.284 74.9256C221.865 75.6975 222.243 76.6771 222.417 77.8645L223.545 85.5824L220.862 85.9749L219.792 78.6607C219.621 77.4891 219.197 76.6375 218.521 76.1057C217.843 75.5581 216.997 75.3584 215.984 75.5066C214.971 75.6548 214.209 76.0895 213.701 76.8107C213.205 77.5138 213.043 78.4511 213.214 79.6227L214.284 86.9369L211.577 87.3328L209.663 74.248L212.37 73.852L212.589 75.3481C212.954 74.745 213.454 74.2433 214.091 73.8429C214.744 73.4403 215.458 73.1822 216.234 73.0688ZM237.987 76.4606C238.059 76.9514 238.092 77.3993 238.087 77.8043L228.089 79.2664C228.321 80.2997 228.832 81.0821 229.621 81.6135C230.41 82.1449 231.311 82.3365 232.325 82.1883C233.781 81.9753 234.721 81.2153 235.144 79.9083L238.065 79.4811C237.845 80.7422 237.27 81.837 236.338 82.7656C235.42 83.676 234.194 84.2435 232.658 84.4681C231.407 84.651 230.243 84.5383 229.164 84.1301C228.099 83.7037 227.208 83.0255 226.49 82.0957C225.785 81.1476 225.335 80.0008 225.138 78.6551C224.941 77.3094 225.038 76.0906 225.428 74.9987C225.831 73.8886 226.483 72.9847 227.384 72.287C228.3 71.5871 229.4 71.1433 230.682 70.9558C231.917 70.7752 233.056 70.8834 234.101 71.2805C235.145 71.6775 236.008 72.3274 236.69 73.2303C237.37 74.1173 237.802 75.1941 237.987 76.4606ZM235.036 76.019C234.875 75.0239 234.402 74.2765 233.617 73.7768C232.832 73.277 231.926 73.1024 230.897 73.2529C229.963 73.3895 229.207 73.8072 228.63 74.5061C228.051 75.1891 227.772 76.0465 227.793 77.0782L235.036 76.019ZM246.436 82.4531C245.407 82.6036 244.454 82.557 243.578 82.3132C242.715 82.0514 241.999 81.6385 241.432 81.0747C240.862 80.4951 240.503 79.8118 240.356 79.0248L243.158 78.615C243.287 79.1622 243.616 79.591 244.147 79.9015C244.691 80.1939 245.327 80.2868 246.055 80.1803C246.815 80.0692 247.38 79.841 247.75 79.4959C248.133 79.1325 248.291 78.7213 248.224 78.2622C248.153 77.7714 247.862 77.442 247.352 77.274C246.858 77.1037 246.084 76.9501 245.029 76.8133C244.008 76.6877 243.17 76.5434 242.516 76.3804C241.861 76.2174 241.266 75.9083 240.731 75.453C240.211 74.9954 239.889 74.3391 239.764 73.4842C239.662 72.7876 239.775 72.1242 240.103 71.4941C240.429 70.8481 240.948 70.3034 241.659 69.8598C242.387 69.4138 243.249 69.118 244.246 68.9721C245.734 68.7545 246.985 68.9596 247.999 69.5876C249.026 70.1974 249.666 71.1467 249.919 72.4356L247.212 72.8316C247.079 72.2527 246.773 71.8204 246.295 71.5347C245.816 71.2489 245.213 71.1592 244.485 71.2657C243.772 71.3699 243.246 71.5844 242.905 71.9091C242.564 72.2338 242.427 72.6178 242.491 73.0611C242.542 73.4094 242.712 73.6837 243 73.8841C243.288 74.0846 243.624 74.2294 244.009 74.3186C244.392 74.392 244.955 74.4795 245.697 74.5812C246.684 74.6956 247.498 74.8433 248.139 75.0245C248.793 75.1875 249.379 75.4899 249.897 75.9317C250.414 76.3735 250.742 77.0127 250.881 77.8495C250.989 78.5936 250.881 79.2886 250.555 79.9346C250.229 80.5805 249.71 81.1253 248.999 81.5689C248.304 82.0102 247.449 82.3049 246.436 82.4531Z" fill="white"/>
<rect x="1.70127" y="61.9356" width="317" height="95" rx="47.5" transform="rotate(-8.32021 1.70127 61.9356)" stroke="white" stroke-width="3"/>
<path d="M1034.43 219.352C1034.57 220.188 1034.51 221.01 1034.24 221.819C1033.97 222.627 1033.44 223.341 1032.65 223.96C1031.86 224.564 1030.79 224.981 1029.43 225.21L1026.45 225.713L1027.58 232.386L1024.88 232.842L1022.1 216.394L1027.78 215.436C1029.05 215.223 1030.15 215.264 1031.09 215.559C1032.05 215.836 1032.8 216.309 1033.35 216.979C1033.92 217.646 1034.28 218.437 1034.43 219.352ZM1029.06 223.009C1030.09 222.836 1030.81 222.478 1031.24 221.935C1031.67 221.377 1031.81 220.671 1031.66 219.819C1031.36 218.021 1030.19 217.293 1028.15 217.637L1025.17 218.14L1026.08 223.512L1029.06 223.009ZM1049.75 221.611C1049.83 222.1 1049.88 222.547 1049.88 222.952L1039.92 224.633C1040.17 225.661 1040.7 226.432 1041.5 226.946C1042.3 227.46 1043.2 227.632 1044.21 227.461C1045.67 227.216 1046.59 226.436 1046.98 225.12L1049.89 224.629C1049.7 225.894 1049.15 227.002 1048.24 227.95C1047.34 228.881 1046.13 229.475 1044.6 229.733C1043.35 229.944 1042.18 229.856 1041.1 229.472C1040.02 229.069 1039.12 228.411 1038.38 227.497C1037.65 226.564 1037.18 225.428 1036.95 224.087C1036.73 222.746 1036.8 221.525 1037.16 220.425C1037.54 219.306 1038.17 218.388 1039.06 217.671C1039.96 216.951 1041.05 216.483 1042.33 216.268C1043.56 216.06 1044.7 216.143 1045.75 216.517C1046.8 216.891 1047.68 217.522 1048.38 218.41C1049.08 219.281 1049.54 220.348 1049.75 221.611ZM1046.79 221.234C1046.61 220.243 1046.12 219.506 1045.32 219.023C1044.53 218.541 1043.62 218.386 1042.59 218.559C1041.66 218.717 1040.91 219.151 1040.35 219.862C1039.79 220.558 1039.53 221.421 1039.57 222.452L1046.79 221.234ZM1054.88 216.632L1056.1 223.85C1056.18 224.339 1056.35 224.675 1056.61 224.859C1056.88 225.024 1057.29 225.06 1057.84 224.967L1059.5 224.687L1059.88 226.936L1057.75 227.295C1056.53 227.5 1055.55 227.373 1054.81 226.914C1054.07 226.456 1053.59 225.587 1053.37 224.309L1052.16 217.091L1050.62 217.351L1050.25 215.15L1051.78 214.89L1051.24 211.648L1053.96 211.189L1054.51 214.431L1057.68 213.896L1058.05 216.097L1054.88 216.632ZM1067.13 225.93C1066.11 226.103 1065.15 226.078 1064.27 225.853C1063.4 225.61 1062.68 225.213 1062.1 224.662C1061.52 224.095 1061.14 223.42 1060.98 222.636L1063.77 222.165C1063.91 222.709 1064.25 223.131 1064.79 223.43C1065.34 223.71 1065.98 223.789 1066.7 223.666C1067.46 223.539 1068.02 223.298 1068.38 222.945C1068.76 222.573 1068.91 222.159 1068.83 221.701C1068.75 221.212 1068.45 220.889 1067.94 220.732C1067.44 220.573 1066.66 220.436 1065.6 220.323C1064.58 220.22 1063.74 220.094 1063.08 219.945C1062.42 219.797 1061.82 219.501 1061.28 219.057C1060.75 218.611 1060.41 217.962 1060.27 217.11C1060.15 216.416 1060.25 215.75 1060.56 215.113C1060.87 214.46 1061.38 213.904 1062.08 213.445C1062.8 212.983 1063.65 212.668 1064.65 212.501C1066.13 212.25 1067.39 212.428 1068.41 213.034C1069.45 213.621 1070.11 214.556 1070.4 215.839L1067.7 216.294C1067.55 215.718 1067.24 215.293 1066.75 215.018C1066.27 214.742 1065.66 214.666 1064.94 214.789C1064.23 214.908 1063.71 215.134 1063.37 215.466C1063.04 215.798 1062.91 216.185 1062.98 216.627C1063.04 216.974 1063.22 217.245 1063.51 217.439C1063.8 217.633 1064.14 217.77 1064.53 217.851C1064.91 217.916 1065.48 217.991 1066.22 218.077C1067.21 218.169 1068.03 218.299 1068.67 218.466C1069.33 218.615 1069.92 218.904 1070.45 219.335C1070.98 219.765 1071.32 220.397 1071.48 221.23C1071.6 221.972 1071.51 222.669 1071.2 223.322C1070.88 223.975 1070.38 224.531 1069.68 224.99C1068.99 225.447 1068.14 225.76 1067.13 225.93Z" fill="white"/>
<rect x="883.135" y="200.476" width="317" height="95" rx="47.5" transform="rotate(-9.57832 883.135 200.476)" stroke="white" stroke-width="3"/>
<path d="M951.337 89.528V94.424H957.097V96.656H951.337V101.768H957.817V104H948.601V87.296H957.817V89.528H951.337ZM963.923 86.24V104H961.187V86.24H963.923ZM979.635 97.064C979.635 97.56 979.603 98.008 979.539 98.408H969.435C969.515 99.464 969.907 100.312 970.611 100.952C971.315 101.592 972.179 101.912 973.203 101.912C974.675 101.912 975.715 101.296 976.323 100.064H979.275C978.875 101.28 978.147 102.28 977.091 103.064C976.051 103.832 974.755 104.216 973.203 104.216C971.939 104.216 970.803 103.936 969.795 103.376C968.803 102.8 968.019 102 967.443 100.976C966.883 99.936 966.603 98.736 966.603 97.376C966.603 96.016 966.875 94.824 967.419 93.8C967.979 92.76 968.755 91.96 969.747 91.4C970.755 90.84 971.907 90.56 973.203 90.56C974.451 90.56 975.563 90.832 976.539 91.376C977.515 91.92 978.275 92.688 978.819 93.68C979.363 94.656 979.635 95.784 979.635 97.064ZM976.779 96.2C976.763 95.192 976.403 94.384 975.699 93.776C974.995 93.168 974.123 92.864 973.083 92.864C972.139 92.864 971.331 93.168 970.659 93.776C969.987 94.368 969.587 95.176 969.459 96.2H976.779ZM981.416 97.376C981.416 96.016 981.688 94.824 982.232 93.8C982.792 92.76 983.56 91.96 984.536 91.4C985.512 90.84 986.632 90.56 987.896 90.56C989.496 90.56 990.816 90.944 991.856 91.712C992.912 92.464 993.624 93.544 993.992 94.952H991.04C990.8 94.296 990.416 93.784 989.888 93.416C989.36 93.048 988.696 92.864 987.896 92.864C986.776 92.864 985.88 93.264 985.208 94.064C984.552 94.848 984.224 95.952 984.224 97.376C984.224 98.8 984.552 99.912 985.208 100.712C985.88 101.512 986.776 101.912 987.896 101.912C989.48 101.912 990.528 101.216 991.04 99.824H993.992C993.608 101.168 992.888 102.24 991.832 103.04C990.776 103.824 989.464 104.216 987.896 104.216C986.632 104.216 985.512 103.936 984.536 103.376C983.56 102.8 982.792 102 982.232 100.976C981.688 99.936 981.416 98.736 981.416 97.376ZM999.91 93.008V100.328C999.91 100.824 1000.02 101.184 1000.25 101.408C1000.49 101.616 1000.89 101.72 1001.45 101.72H1003.13V104H1000.97C999.734 104 998.79 103.712 998.134 103.136C997.478 102.56 997.15 101.624 997.15 100.328V93.008H995.59V90.776H997.15V87.488H999.91V90.776H1003.13V93.008H999.91ZM1008.38 92.696C1008.78 92.024 1009.31 91.504 1009.97 91.136C1010.64 90.752 1011.43 90.56 1012.34 90.56V93.392H1011.65C1010.58 93.392 1009.76 93.664 1009.2 94.208C1008.66 94.752 1008.38 95.696 1008.38 97.04V104H1005.65V90.776H1008.38V92.696ZM1020.59 104.216C1019.35 104.216 1018.22 103.936 1017.21 103.376C1016.2 102.8 1015.41 102 1014.83 100.976C1014.26 99.936 1013.97 98.736 1013.97 97.376C1013.97 96.032 1014.27 94.84 1014.86 93.8C1015.45 92.76 1016.26 91.96 1017.28 91.4C1018.31 90.84 1019.45 90.56 1020.71 90.56C1021.98 90.56 1023.12 90.84 1024.15 91.4C1025.17 91.96 1025.98 92.76 1026.57 93.8C1027.16 94.84 1027.46 96.032 1027.46 97.376C1027.46 98.72 1027.15 99.912 1026.55 100.952C1025.94 101.992 1025.11 102.8 1024.05 103.376C1023.01 103.936 1021.86 104.216 1020.59 104.216ZM1020.59 101.84C1021.3 101.84 1021.95 101.672 1022.56 101.336C1023.19 101 1023.69 100.496 1024.07 99.824C1024.46 99.152 1024.65 98.336 1024.65 97.376C1024.65 96.416 1024.47 95.608 1024.1 94.952C1023.73 94.28 1023.24 93.776 1022.63 93.44C1022.03 93.104 1021.37 92.936 1020.67 92.936C1019.96 92.936 1019.31 93.104 1018.7 93.44C1018.11 93.776 1017.63 94.28 1017.28 94.952C1016.93 95.608 1016.75 96.416 1016.75 97.376C1016.75 98.8 1017.11 99.904 1017.83 100.688C1018.57 101.456 1019.49 101.84 1020.59 101.84ZM1036.84 90.56C1037.88 90.56 1038.8 90.776 1039.62 91.208C1040.45 91.64 1041.1 92.28 1041.56 93.128C1042.03 93.976 1042.26 95 1042.26 96.2V104H1039.55V96.608C1039.55 95.424 1039.25 94.52 1038.66 93.896C1038.07 93.256 1037.26 92.936 1036.24 92.936C1035.21 92.936 1034.4 93.256 1033.79 93.896C1033.2 94.52 1032.9 95.424 1032.9 96.608V104H1030.16V90.776H1032.9V92.288C1033.35 91.744 1033.92 91.32 1034.6 91.016C1035.31 90.712 1036.05 90.56 1036.84 90.56ZM1047.14 89.024C1046.65 89.024 1046.23 88.856 1045.89 88.52C1045.56 88.184 1045.39 87.768 1045.39 87.272C1045.39 86.776 1045.56 86.36 1045.89 86.024C1046.23 85.688 1046.65 85.52 1047.14 85.52C1047.62 85.52 1048.03 85.688 1048.37 86.024C1048.7 86.36 1048.87 86.776 1048.87 87.272C1048.87 87.768 1048.7 88.184 1048.37 88.52C1048.03 88.856 1047.62 89.024 1047.14 89.024ZM1048.49 90.776V104H1045.75V90.776H1048.49ZM1051.17 97.376C1051.17 96.016 1051.44 94.824 1051.98 93.8C1052.54 92.76 1053.31 91.96 1054.29 91.4C1055.26 90.84 1056.38 90.56 1057.65 90.56C1059.25 90.56 1060.57 90.944 1061.61 91.712C1062.66 92.464 1063.37 93.544 1063.74 94.952H1060.79C1060.55 94.296 1060.17 93.784 1059.64 93.416C1059.11 93.048 1058.45 92.864 1057.65 92.864C1056.53 92.864 1055.63 93.264 1054.96 94.064C1054.3 94.848 1053.97 95.952 1053.97 97.376C1053.97 98.8 1054.3 99.912 1054.96 100.712C1055.63 101.512 1056.53 101.912 1057.65 101.912C1059.23 101.912 1060.28 101.216 1060.79 99.824H1063.74C1063.36 101.168 1062.64 102.24 1061.58 103.04C1060.53 103.824 1059.21 104.216 1057.65 104.216C1056.38 104.216 1055.26 103.936 1054.29 103.376C1053.31 102.8 1052.54 102 1051.98 100.976C1051.44 99.936 1051.17 98.736 1051.17 97.376ZM1071.27 104.216C1070.23 104.216 1069.29 104.032 1068.46 103.664C1067.64 103.28 1067 102.768 1066.52 102.128C1066.04 101.472 1065.78 100.744 1065.75 99.944H1068.58C1068.63 100.504 1068.89 100.976 1069.37 101.36C1069.87 101.728 1070.48 101.912 1071.22 101.912C1071.99 101.912 1072.58 101.768 1073 101.48C1073.43 101.176 1073.64 100.792 1073.64 100.328C1073.64 99.832 1073.4 99.464 1072.92 99.224C1072.46 98.984 1071.72 98.72 1070.69 98.432C1069.7 98.16 1068.89 97.896 1068.27 97.64C1067.64 97.384 1067.1 96.992 1066.64 96.464C1066.19 95.936 1065.96 95.24 1065.96 94.376C1065.96 93.672 1066.17 93.032 1066.59 92.456C1067 91.864 1067.6 91.4 1068.36 91.064C1069.15 90.728 1070.04 90.56 1071.05 90.56C1072.56 90.56 1073.76 90.944 1074.68 91.712C1075.6 92.464 1076.1 93.496 1076.16 94.808H1073.43C1073.38 94.216 1073.14 93.744 1072.71 93.392C1072.28 93.04 1071.69 92.864 1070.96 92.864C1070.24 92.864 1069.68 93 1069.3 93.272C1068.92 93.544 1068.72 93.904 1068.72 94.352C1068.72 94.704 1068.85 95 1069.11 95.24C1069.36 95.48 1069.68 95.672 1070.04 95.816C1070.41 95.944 1070.96 96.112 1071.68 96.32C1072.64 96.576 1073.42 96.84 1074.03 97.112C1074.65 97.368 1075.19 97.752 1075.64 98.264C1076.08 98.776 1076.32 99.456 1076.33 100.304C1076.33 101.056 1076.12 101.728 1075.71 102.32C1075.29 102.912 1074.7 103.376 1073.93 103.712C1073.18 104.048 1072.29 104.216 1071.27 104.216ZM1098.41 104L1096.35 101.936C1095.55 102.736 1094.67 103.336 1093.73 103.736C1092.79 104.12 1091.73 104.312 1090.56 104.312C1089.38 104.312 1088.33 104.104 1087.42 103.688C1086.51 103.272 1085.8 102.68 1085.31 101.912C1084.81 101.128 1084.56 100.224 1084.56 99.2C1084.56 98.048 1084.89 97.024 1085.55 96.128C1086.2 95.216 1087.18 94.496 1088.47 93.968C1088.01 93.408 1087.68 92.888 1087.49 92.408C1087.3 91.912 1087.2 91.368 1087.2 90.776C1087.2 90.04 1087.39 89.384 1087.75 88.808C1088.14 88.232 1088.68 87.776 1089.39 87.44C1090.09 87.104 1090.91 86.936 1091.83 86.936C1092.78 86.936 1093.58 87.12 1094.23 87.488C1094.91 87.84 1095.4 88.328 1095.72 88.952C1096.06 89.576 1096.19 90.272 1096.13 91.04H1093.39C1093.41 90.448 1093.27 89.992 1092.96 89.672C1092.66 89.336 1092.24 89.168 1091.71 89.168C1091.19 89.168 1090.75 89.328 1090.42 89.648C1090.1 89.952 1089.94 90.328 1089.94 90.776C1089.94 91.208 1090.06 91.64 1090.3 92.072C1090.55 92.488 1090.99 93.032 1091.62 93.704L1096.03 98.096L1097.74 95.288H1100.69L1098.53 98.984L1097.93 99.968L1101.99 104H1098.41ZM1090.56 101.984C1092.07 101.984 1093.39 101.368 1094.55 100.136L1090.13 95.696C1088.24 96.448 1087.3 97.584 1087.3 99.104C1087.3 99.92 1087.6 100.608 1088.21 101.168C1088.82 101.712 1089.6 101.984 1090.56 101.984ZM1120.07 100.592H1113.09L1111.89 104H1109.03L1115.01 87.296H1118.18L1124.15 104H1121.27L1120.07 100.592ZM1119.3 98.36L1116.59 90.608L1113.86 98.36H1119.3ZM1129.49 92.72C1129.95 92.112 1130.58 91.6 1131.38 91.184C1132.18 90.768 1133.09 90.56 1134.09 90.56C1135.25 90.56 1136.29 90.848 1137.24 91.424C1138.2 91.984 1138.95 92.776 1139.49 93.8C1140.04 94.824 1140.31 96 1140.31 97.328C1140.31 98.656 1140.04 99.848 1139.49 100.904C1138.95 101.944 1138.2 102.76 1137.24 103.352C1136.29 103.928 1135.25 104.216 1134.09 104.216C1133.09 104.216 1132.19 104.016 1131.41 103.616C1130.62 103.2 1129.98 102.688 1129.49 102.08V110.288H1126.75V90.776H1129.49V92.72ZM1137.53 97.328C1137.53 96.416 1137.33 95.632 1136.95 94.976C1136.58 94.304 1136.09 93.8 1135.46 93.464C1134.85 93.112 1134.2 92.936 1133.49 92.936C1132.81 92.936 1132.15 93.112 1131.53 93.464C1130.92 93.816 1130.42 94.328 1130.04 95C1129.67 95.672 1129.49 96.464 1129.49 97.376C1129.49 98.288 1129.67 99.088 1130.04 99.776C1130.42 100.448 1130.92 100.96 1131.53 101.312C1132.15 101.664 1132.81 101.84 1133.49 101.84C1134.2 101.84 1134.85 101.664 1135.46 101.312C1136.09 100.944 1136.58 100.416 1136.95 99.728C1137.33 99.04 1137.53 98.24 1137.53 97.328ZM1145.75 92.72C1146.22 92.112 1146.85 91.6 1147.65 91.184C1148.45 90.768 1149.35 90.56 1150.36 90.56C1151.51 90.56 1152.56 90.848 1153.5 91.424C1154.46 91.984 1155.22 92.776 1155.76 93.8C1156.3 94.824 1156.58 96 1156.58 97.328C1156.58 98.656 1156.3 99.848 1155.76 100.904C1155.22 101.944 1154.46 102.76 1153.5 103.352C1152.56 103.928 1151.51 104.216 1150.36 104.216C1149.35 104.216 1148.46 104.016 1147.67 103.616C1146.89 103.2 1146.25 102.688 1145.75 102.08V110.288H1143.02V90.776H1145.75V92.72ZM1153.79 97.328C1153.79 96.416 1153.6 95.632 1153.22 94.976C1152.85 94.304 1152.35 93.8 1151.73 93.464C1151.12 93.112 1150.46 92.936 1149.76 92.936C1149.07 92.936 1148.42 93.112 1147.79 93.464C1147.18 93.816 1146.69 94.328 1146.3 95C1145.94 95.672 1145.75 96.464 1145.75 97.376C1145.75 98.288 1145.94 99.088 1146.3 99.776C1146.69 100.448 1147.18 100.96 1147.79 101.312C1148.42 101.664 1149.07 101.84 1149.76 101.84C1150.46 101.84 1151.12 101.664 1151.73 101.312C1152.35 100.944 1152.85 100.416 1153.22 99.728C1153.6 99.04 1153.79 98.24 1153.79 97.328ZM1162.02 86.24V104H1159.28V86.24H1162.02ZM1167 89.024C1166.5 89.024 1166.09 88.856 1165.75 88.52C1165.42 88.184 1165.25 87.768 1165.25 87.272C1165.25 86.776 1165.42 86.36 1165.75 86.024C1166.09 85.688 1166.5 85.52 1167 85.52C1167.48 85.52 1167.89 85.688 1168.22 86.024C1168.56 86.36 1168.73 86.776 1168.73 87.272C1168.73 87.768 1168.56 88.184 1168.22 88.52C1167.89 88.856 1167.48 89.024 1167 89.024ZM1168.34 90.776V104H1165.61V90.776H1168.34ZM1171.02 97.328C1171.02 96 1171.3 94.824 1171.84 93.8C1172.4 92.776 1173.15 91.984 1174.1 91.424C1175.06 90.848 1176.11 90.56 1177.26 90.56C1178.3 90.56 1179.21 90.768 1179.98 91.184C1180.76 91.584 1181.38 92.088 1181.85 92.696V90.776H1184.61V104H1181.85V102.032C1181.38 102.656 1180.75 103.176 1179.95 103.592C1179.15 104.008 1178.24 104.216 1177.22 104.216C1176.08 104.216 1175.04 103.928 1174.1 103.352C1173.15 102.76 1172.4 101.944 1171.84 100.904C1171.3 99.848 1171.02 98.656 1171.02 97.328ZM1181.85 97.376C1181.85 96.464 1181.66 95.672 1181.27 95C1180.9 94.328 1180.42 93.816 1179.81 93.464C1179.2 93.112 1178.54 92.936 1177.84 92.936C1177.14 92.936 1176.48 93.112 1175.87 93.464C1175.26 93.8 1174.77 94.304 1174.38 94.976C1174.02 95.632 1173.83 96.416 1173.83 97.328C1173.83 98.24 1174.02 99.04 1174.38 99.728C1174.77 100.416 1175.26 100.944 1175.87 101.312C1176.5 101.664 1177.15 101.84 1177.84 101.84C1178.54 101.84 1179.2 101.664 1179.81 101.312C1180.42 100.96 1180.9 100.448 1181.27 99.776C1181.66 99.088 1181.85 98.288 1181.85 97.376ZM1194.87 90.56C1195.91 90.56 1196.84 90.776 1197.66 91.208C1198.49 91.64 1199.14 92.28 1199.6 93.128C1200.07 93.976 1200.3 95 1200.3 96.2V104H1197.59V96.608C1197.59 95.424 1197.29 94.52 1196.7 93.896C1196.11 93.256 1195.3 92.936 1194.27 92.936C1193.25 92.936 1192.43 93.256 1191.83 93.896C1191.23 94.52 1190.94 95.424 1190.94 96.608V104H1188.2V90.776H1190.94V92.288C1191.39 91.744 1191.95 91.32 1192.64 91.016C1193.35 90.712 1194.09 90.56 1194.87 90.56ZM1202.88 97.376C1202.88 96.016 1203.15 94.824 1203.69 93.8C1204.25 92.76 1205.02 91.96 1206 91.4C1206.97 90.84 1208.09 90.56 1209.36 90.56C1210.96 90.56 1212.28 90.944 1213.32 91.712C1214.37 92.464 1215.08 93.544 1215.45 94.952H1212.5C1212.26 94.296 1211.88 93.784 1211.35 93.416C1210.82 93.048 1210.16 92.864 1209.36 92.864C1208.24 92.864 1207.34 93.264 1206.67 94.064C1206.01 94.848 1205.68 95.952 1205.68 97.376C1205.68 98.8 1206.01 99.912 1206.67 100.712C1207.34 101.512 1208.24 101.912 1209.36 101.912C1210.94 101.912 1211.99 101.216 1212.5 99.824H1215.45C1215.07 101.168 1214.35 102.24 1213.29 103.04C1212.24 103.824 1210.92 104.216 1209.36 104.216C1208.09 104.216 1206.97 103.936 1206 103.376C1205.02 102.8 1204.25 102 1203.69 100.976C1203.15 99.936 1202.88 98.736 1202.88 97.376ZM1230.3 97.064C1230.3 97.56 1230.27 98.008 1230.2 98.408H1220.1C1220.18 99.464 1220.57 100.312 1221.28 100.952C1221.98 101.592 1222.84 101.912 1223.87 101.912C1225.34 101.912 1226.38 101.296 1226.99 100.064H1229.94C1229.54 101.28 1228.81 102.28 1227.76 103.064C1226.72 103.832 1225.42 104.216 1223.87 104.216C1222.6 104.216 1221.47 103.936 1220.46 103.376C1219.47 102.8 1218.68 102 1218.11 100.976C1217.55 99.936 1217.27 98.736 1217.27 97.376C1217.27 96.016 1217.54 94.824 1218.08 93.8C1218.64 92.76 1219.42 91.96 1220.41 91.4C1221.42 90.84 1222.57 90.56 1223.87 90.56C1225.12 90.56 1226.23 90.832 1227.2 91.376C1228.18 91.92 1228.94 92.688 1229.48 93.68C1230.03 94.656 1230.3 95.784 1230.3 97.064ZM1227.44 96.2C1227.43 95.192 1227.07 94.384 1226.36 93.776C1225.66 93.168 1224.79 92.864 1223.75 92.864C1222.8 92.864 1222 93.168 1221.32 93.776C1220.65 94.368 1220.25 95.176 1220.12 96.2H1227.44ZM1237.79 104.216C1236.75 104.216 1235.82 104.032 1234.98 103.664C1234.17 103.28 1233.52 102.768 1233.04 102.128C1232.56 101.472 1232.3 100.744 1232.27 99.944H1235.1C1235.15 100.504 1235.42 100.976 1235.9 101.36C1236.39 101.728 1237.01 101.912 1237.74 101.912C1238.51 101.912 1239.1 101.768 1239.52 101.48C1239.95 101.176 1240.17 100.792 1240.17 100.328C1240.17 99.832 1239.93 99.464 1239.45 99.224C1238.98 98.984 1238.24 98.72 1237.22 98.432C1236.22 98.16 1235.42 97.896 1234.79 97.64C1234.17 97.384 1233.62 96.992 1233.16 96.464C1232.71 95.936 1232.49 95.24 1232.49 94.376C1232.49 93.672 1232.7 93.032 1233.11 92.456C1233.53 91.864 1234.12 91.4 1234.89 91.064C1235.67 90.728 1236.57 90.56 1237.58 90.56C1239.08 90.56 1240.29 90.944 1241.2 91.712C1242.13 92.464 1242.62 93.496 1242.69 94.808H1239.95C1239.9 94.216 1239.66 93.744 1239.23 93.392C1238.8 93.04 1238.22 92.864 1237.48 92.864C1236.76 92.864 1236.21 93 1235.82 93.272C1235.44 93.544 1235.25 93.904 1235.25 94.352C1235.25 94.704 1235.38 95 1235.63 95.24C1235.89 95.48 1236.2 95.672 1236.57 95.816C1236.94 95.944 1237.48 96.112 1238.2 96.32C1239.16 96.576 1239.94 96.84 1240.55 97.112C1241.18 97.368 1241.71 97.752 1242.16 98.264C1242.61 98.776 1242.84 99.456 1242.86 100.304C1242.86 101.056 1242.65 101.728 1242.23 102.32C1241.82 102.912 1241.22 103.376 1240.46 103.712C1239.7 104.048 1238.82 104.216 1237.79 104.216Z" fill="white"/>
<rect x="931.906" y="48.5" width="326" height="95" rx="47.5" stroke="white" stroke-width="3"/>
<path d="M732.632 73.634L732.003 75.7755L725.21 73.78L723.823 78.5005L729.119 80.0563L728.49 82.1979L723.194 80.642L721.137 87.6422L718.512 86.8711L723.214 70.8673L732.632 73.634ZM731.369 83.6939C731.743 82.4197 732.335 81.368 733.146 80.5389C733.972 79.7142 734.917 79.1663 735.98 78.8951C737.064 78.613 738.158 78.6343 739.263 78.959C740.261 79.2522 741.07 79.7065 741.689 80.3221C742.329 80.9269 742.785 81.5863 743.059 82.3005L743.6 80.4583L746.249 81.2362L742.521 93.9241L739.873 93.1462L740.428 91.258C739.807 91.7259 739.054 92.0467 738.169 92.2203C737.284 92.394 736.351 92.3365 735.368 92.0478C734.278 91.7277 733.362 91.1582 732.618 90.3395C731.879 89.5054 731.388 88.5105 731.144 87.3549C730.919 86.1884 730.994 84.968 731.369 83.6939ZM741.74 86.7907C741.997 85.9157 742.036 85.1017 741.857 84.3487C741.694 83.6002 741.37 82.9714 740.886 82.4623C740.401 81.9532 739.822 81.5995 739.146 81.4011C738.471 81.2026 737.792 81.1866 737.109 81.353C736.431 81.504 735.813 81.8477 735.255 82.3843C734.717 82.9099 734.32 83.6103 734.063 84.4853C733.806 85.3603 733.757 86.1798 733.916 86.9436C734.09 87.7119 734.417 88.3583 734.897 88.8828C735.397 89.3964 735.976 89.7501 736.637 89.9441C737.312 90.1425 737.991 90.1585 738.674 89.9922C739.356 89.8258 739.969 89.4721 740.511 88.9311C741.073 88.3792 741.483 87.6657 741.74 86.7907ZM750.514 96.4971C749.516 96.204 748.67 95.7636 747.975 95.176C747.3 94.5776 746.823 93.9037 746.543 93.1544C746.267 92.3897 746.227 91.6191 746.422 90.8425L749.139 91.6407C749.027 92.1915 749.147 92.7188 749.5 93.2225C749.872 93.7154 750.411 94.0656 751.117 94.273C751.854 94.4895 752.463 94.5182 752.943 94.3591C753.443 94.1892 753.758 93.8816 753.889 93.4364C754.029 92.9605 753.903 92.5398 753.51 92.1743C753.132 91.8132 752.493 91.3502 751.591 90.7853C750.716 90.2447 750.015 89.7637 749.489 89.3422C748.962 88.9207 748.551 88.3912 748.254 87.7539C747.973 87.121 747.955 86.3901 748.198 85.5611C748.397 84.8856 748.777 84.3302 749.338 83.8948C749.904 83.4441 750.603 83.1657 751.434 83.0598C752.281 82.9584 753.188 83.0498 754.156 83.3339C755.599 83.7578 756.649 84.4667 757.308 85.4606C757.986 86.4437 758.171 87.5737 757.863 88.8505L755.238 88.0794C755.359 87.4978 755.261 86.9773 754.946 86.5178C754.631 86.0583 754.12 85.7249 753.414 85.5174C752.723 85.3145 752.155 85.2894 751.71 85.4421C751.265 85.5949 750.979 85.8862 750.853 86.316C750.754 86.6537 750.793 86.9738 750.971 87.2762C751.149 87.5786 751.394 87.8508 751.707 88.0927C752.024 88.3192 752.499 88.6337 753.131 89.0362C753.98 89.5524 754.657 90.0267 755.164 90.4591C755.691 90.8806 756.097 91.4001 756.382 92.0176C756.668 92.6351 756.699 93.3529 756.475 94.171C756.263 94.8926 755.874 95.4787 755.308 95.9294C754.742 96.3802 754.043 96.6585 753.212 96.7644C752.396 96.8748 751.496 96.7857 750.514 96.4971ZM768.621 87.5832C769.588 87.8673 770.387 88.3271 771.017 88.9626C771.663 89.6026 772.081 90.3925 772.272 91.3324C772.478 92.2768 772.412 93.3247 772.074 94.476L769.875 101.96L767.273 101.195L769.357 94.1031C769.691 92.9671 769.661 92.0163 769.269 91.2507C768.882 90.4698 768.197 89.9351 767.214 89.6464C766.232 89.3578 765.358 89.4349 764.595 89.8775C763.851 90.3094 763.312 91.0933 762.978 92.2293L760.895 99.3216L758.27 98.5504L763.276 81.5105L765.901 82.2816L764.189 88.1075C764.792 87.701 765.474 87.4511 766.235 87.3578C767.012 87.2691 767.807 87.3442 768.621 87.5832ZM778.78 88.9669C778.305 88.8271 777.953 88.5487 777.725 88.1316C777.497 87.7145 777.453 87.2681 777.593 86.7922C777.733 86.3163 778.012 85.9645 778.429 85.7368C778.846 85.5091 779.292 85.4652 779.768 85.605C780.229 85.7403 780.573 86.0165 780.8 86.4336C781.028 86.8507 781.072 87.2971 780.932 87.773C780.792 88.2489 780.514 88.6007 780.097 88.8284C779.68 89.056 779.241 89.1022 778.78 88.9669ZM779.576 91.0267L775.849 103.715L773.224 102.943L776.951 90.2556L779.576 91.0267ZM784.738 106.551C783.541 106.199 782.537 105.613 781.728 104.791C780.923 103.955 780.389 102.964 780.125 101.819C779.865 100.659 779.927 99.4262 780.31 98.1213C780.689 96.8318 781.309 95.7716 782.17 94.9406C783.031 94.1096 784.032 93.5698 785.172 93.3211C786.313 93.0724 787.489 93.1262 788.702 93.4825C789.915 93.8388 790.934 94.4299 791.758 95.2558C792.583 96.0817 793.133 97.077 793.407 98.2417C793.682 99.4064 793.63 100.633 793.252 101.923C792.873 103.212 792.245 104.27 791.369 105.097C790.492 105.923 789.466 106.464 788.291 106.719C787.135 106.963 785.951 106.907 784.738 106.551ZM785.408 104.271C786.083 104.47 786.76 104.493 787.438 104.342C788.131 104.196 788.757 103.854 789.315 103.318C789.873 102.781 790.287 102.053 790.557 101.132C790.828 100.21 790.879 99.3834 790.711 98.6502C790.547 97.9018 790.221 97.2806 789.733 96.7869C789.244 96.2931 788.662 95.9471 787.986 95.7486C787.311 95.5502 786.634 95.5265 785.956 95.6775C785.293 95.833 784.698 96.1836 784.171 96.7291C783.649 97.2593 783.252 97.9849 782.982 98.906C782.58 100.272 782.614 101.433 783.084 102.388C783.574 103.332 784.348 103.96 785.408 104.271ZM804.169 98.0262C805.167 98.3193 805.997 98.7881 806.658 99.4326C807.334 100.082 807.776 100.878 807.982 101.823C808.188 102.767 808.122 103.815 807.784 104.966L805.585 112.45L802.983 111.686L805.067 104.593C805.4 103.457 805.371 102.507 804.979 101.741C804.591 100.96 803.906 100.425 802.924 100.137C801.941 99.8481 801.068 99.9252 800.305 100.368C799.561 100.8 799.022 101.584 798.688 102.72L796.605 109.812L793.98 109.041L797.707 96.3529L800.332 97.1241L799.906 98.5748C800.489 98.1791 801.153 97.9324 801.899 97.8346C802.66 97.7414 803.417 97.8052 804.169 98.0262Z" fill="white"/>
<rect x="626.045" y="1.86197" width="317" height="95" rx="47.5" transform="rotate(16.371 626.045 1.86197)" stroke="white" stroke-width="3"/>
<path d="M416.391 97.7615L418.507 114.307L415.793 114.654L414.867 107.417L407.083 108.412L408.009 115.649L405.295 115.997L403.178 99.4514L405.892 99.1043L406.8 106.198L414.584 105.203L413.677 98.1086L416.391 97.7615ZM433.222 105.432C433.285 105.924 433.31 106.372 433.297 106.777L423.275 108.059C423.488 109.097 423.985 109.888 424.764 110.434C425.544 110.979 426.441 111.187 427.457 111.057C428.917 110.87 429.87 110.127 430.317 108.828L433.245 108.453C433.003 109.71 432.408 110.795 431.46 111.706C430.525 112.6 429.289 113.145 427.749 113.342C426.495 113.503 425.333 113.369 424.262 112.941C423.205 112.496 422.326 111.802 421.625 110.859C420.937 109.899 420.507 108.744 420.335 107.395C420.162 106.046 420.281 104.829 420.69 103.744C421.114 102.642 421.782 101.75 422.695 101.068C423.624 100.385 424.731 99.9611 426.017 99.7967C427.255 99.6383 428.392 99.767 429.429 100.183C430.466 100.599 431.318 101.264 431.983 102.179C432.647 103.078 433.059 104.162 433.222 105.432ZM430.279 104.937C430.136 103.94 429.676 103.184 428.9 102.67C428.125 102.156 427.221 101.965 426.19 102.097C425.254 102.217 424.491 102.621 423.901 103.309C423.31 103.982 423.015 104.834 423.018 105.866L430.279 104.937ZM435.021 105.468C434.853 104.151 434.974 102.95 435.383 101.865C435.809 100.778 436.454 99.8972 437.32 99.222C438.199 98.5289 439.21 98.1092 440.352 97.963C441.384 97.8311 442.307 97.9227 443.122 98.2379C443.95 98.5352 444.633 98.956 445.17 99.5002L444.927 97.5957L447.664 97.2456L449.342 110.363L446.604 110.713L446.355 108.761C445.974 109.439 445.413 110.035 444.672 110.549C443.931 111.063 443.053 111.385 442.037 111.515C440.91 111.659 439.842 111.505 438.833 111.054C437.821 110.586 436.972 109.872 436.285 108.912C435.611 107.933 435.19 106.785 435.021 105.468ZM445.764 104.142C445.648 103.238 445.357 102.477 444.891 101.859C444.441 101.239 443.892 100.793 443.244 100.521C442.596 100.249 441.923 100.157 441.225 100.247C440.527 100.336 439.898 100.594 439.34 101.02C438.78 101.431 438.352 101.993 438.056 102.709C437.774 103.406 437.691 104.207 437.807 105.112C437.922 106.016 438.206 106.787 438.659 107.422C439.127 108.056 439.686 108.517 440.336 108.805C440.999 109.075 441.672 109.166 442.355 109.079C443.053 108.989 443.681 108.732 444.24 108.305C444.798 107.879 445.217 107.309 445.497 106.596C445.791 105.865 445.88 105.047 445.764 104.142ZM453.367 91.9432L455.621 109.56L452.907 109.907L450.653 92.2903L453.367 91.9432ZM460.955 97.7957L461.884 105.057C461.947 105.549 462.104 105.891 462.354 106.085C462.619 106.261 463.029 106.314 463.584 106.242L465.251 106.029L465.54 108.291L463.397 108.565C462.175 108.721 461.202 108.555 460.479 108.067C459.755 107.579 459.311 106.692 459.146 105.407L458.218 98.1459L456.67 98.3438L456.387 96.1299L457.934 95.9319L457.517 92.6705L460.255 92.3204L460.672 95.5818L463.862 95.1738L464.145 97.3877L460.955 97.7957ZM473.121 93.7718C474.121 93.6439 475.037 93.7445 475.869 94.0735C476.718 94.4005 477.418 94.9562 477.97 95.7405C478.538 96.5228 478.898 97.5091 479.05 98.6994L480.04 106.436L477.349 106.78L476.412 99.4481C476.261 98.2737 475.853 97.4146 475.187 96.8707C474.518 96.311 473.676 96.0961 472.66 96.226C471.645 96.3559 470.876 96.7769 470.354 97.4888C469.846 98.1829 469.667 99.1171 469.817 100.292L470.755 107.624L468.041 107.971L465.788 90.3545L468.502 90.0074L469.272 96.0303C469.661 95.416 470.186 94.9134 470.846 94.5225C471.521 94.1296 472.28 93.8794 473.121 93.7718ZM502.469 103.567L500.16 101.782C499.468 102.677 498.679 103.383 497.793 103.899C496.906 104.4 495.883 104.724 494.724 104.873C493.55 105.023 492.484 104.949 491.526 104.653C490.569 104.356 489.795 103.858 489.206 103.159C488.615 102.444 488.254 101.579 488.124 100.563C487.978 99.4205 488.173 98.3631 488.71 97.3911C489.245 96.4033 490.122 95.5653 491.341 94.8771C490.809 94.3805 490.418 93.9063 490.167 93.4546C489.913 92.9869 489.749 92.4595 489.674 91.8723C489.581 91.1422 489.68 90.4682 489.972 89.8502C490.28 89.2301 490.761 88.7088 491.417 88.2862C492.073 87.8636 492.861 87.5934 493.781 87.4757C494.718 87.3559 495.535 87.4369 496.232 87.7187C496.943 87.9826 497.497 88.4037 497.894 88.9821C498.306 89.5584 498.529 90.2315 498.563 91.0015L495.849 91.3486C495.79 90.7593 495.589 90.3253 495.247 90.0464C494.903 89.7517 494.469 89.6379 493.945 89.7048C493.422 89.7718 493.013 89.9853 492.721 90.3454C492.442 90.6875 492.331 91.0808 492.388 91.5252C492.443 91.9537 492.616 92.367 492.909 92.765C493.216 93.1452 493.721 93.629 494.426 94.2164L499.363 98.0126L500.697 95.0111L503.625 94.6366L501.952 98.5768L501.481 99.6289L506.016 103.114L502.469 103.567ZM494.429 102.563C495.921 102.373 497.16 101.593 498.146 100.225L493.202 96.3811C491.425 97.3665 490.633 98.6131 490.826 100.121C490.929 100.93 491.318 101.574 491.992 102.052C492.664 102.515 493.476 102.685 494.429 102.563ZM521.748 92.4637C522.657 92.5088 523.471 92.8805 524.19 93.579C524.908 94.2775 525.33 95.1188 525.456 96.1027C525.564 96.9439 525.439 97.7341 525.082 98.4734C524.738 99.1948 524.18 99.8066 523.405 100.309C522.628 100.795 521.693 101.109 520.598 101.249L513.979 102.095L511.863 85.55L518.172 84.7431C519.299 84.599 520.291 84.6656 521.149 84.943C522.007 85.2203 522.684 85.658 523.18 86.2559C523.674 86.8379 523.972 87.5257 524.073 88.3193C524.195 89.2715 524.043 90.0975 523.616 90.7973C523.189 91.4971 522.567 92.0526 521.748 92.4637ZM515.466 92.1542L518.823 91.7249C519.712 91.6112 520.377 91.3245 520.818 90.8648C521.273 90.3873 521.452 89.7676 521.354 89.0058C521.259 88.2598 520.931 87.713 520.37 87.3654C519.824 86.9998 519.106 86.8738 518.217 86.9875L514.86 87.4168L515.466 92.1542ZM520.076 99.0652C520.997 98.9475 521.691 98.6329 522.157 98.1215C522.624 97.6102 522.807 96.9577 522.706 96.1642C522.602 95.3548 522.242 94.7475 521.626 94.3425C521.009 93.9374 520.241 93.7937 519.32 93.9115L515.749 94.3682L516.41 99.5341L520.076 99.0652ZM540.117 91.7596C540.18 92.2516 540.205 92.7001 540.192 93.1049L530.17 94.3869C530.383 95.4242 530.879 96.2156 531.659 96.7611C532.438 97.3066 533.336 97.5144 534.352 97.3845C535.812 97.1977 536.765 96.4548 537.212 95.1556L540.14 94.7811C539.898 96.038 539.302 97.1223 538.354 98.0339C537.42 98.9276 536.183 99.473 534.644 99.6699C533.39 99.8302 532.228 99.6966 531.157 99.269C530.1 98.8235 529.221 98.1295 528.519 97.1868C527.832 96.2263 527.402 95.0715 527.229 93.7225C527.057 92.3735 527.176 91.1566 527.585 90.0719C528.009 88.9692 528.677 88.0772 529.59 87.3959C530.519 86.7125 531.626 86.2886 532.911 86.1242C534.149 85.9659 535.287 86.0946 536.324 86.5104C537.361 86.9262 538.212 87.5915 538.878 88.5065C539.541 89.4056 539.954 90.49 540.117 91.7596ZM537.174 91.2649C537.03 90.2671 536.571 89.5113 535.795 88.9976C535.02 88.4838 534.116 88.2929 533.085 88.4248C532.148 88.5446 531.385 88.9486 530.796 89.637C530.205 90.3095 529.91 91.1617 529.913 92.1937L537.174 91.2649ZM541.916 91.7956C541.748 90.4783 541.868 89.2773 542.278 88.1926C542.704 87.1058 543.349 86.2248 544.214 85.5495C545.093 84.8564 546.104 84.4368 547.247 84.2906C548.279 84.1587 549.202 84.2503 550.016 84.5655C550.845 84.8628 551.528 85.2835 552.065 85.8278L551.821 83.9233L554.559 83.5731L556.237 96.6902L553.499 97.0404L553.25 95.0883C552.868 95.7661 552.308 96.3621 551.567 96.8763C550.826 97.3904 549.948 97.7124 548.932 97.8423C547.805 97.9865 546.737 97.8327 545.728 97.3812C544.716 96.9137 543.867 96.1997 543.179 95.2392C542.506 94.2607 542.085 93.1129 541.916 91.7956ZM552.659 90.4699C552.543 89.5653 552.252 88.8041 551.786 88.1862C551.336 87.5663 550.787 87.1204 550.139 86.8484C549.491 86.5764 548.818 86.485 548.12 86.5743C547.422 86.6636 546.793 86.9214 546.235 87.3477C545.674 87.7582 545.246 88.321 544.951 89.0363C544.669 89.7337 544.586 90.5347 544.702 91.4393C544.817 92.344 545.101 93.1142 545.554 93.7499C546.022 94.3836 546.581 94.8444 547.23 95.1323C547.894 95.4023 548.567 95.4937 549.25 95.4064C549.948 95.3171 550.576 95.0592 551.135 94.633C551.693 94.2067 552.112 93.6369 552.392 92.9236C552.686 92.1925 552.775 91.3746 552.659 90.4699ZM570.003 81.5978L571.681 94.7149L568.967 95.062L568.769 93.5146C568.409 94.109 567.901 94.6096 567.243 95.0163C566.599 95.4052 565.888 95.6493 565.111 95.7488C564.079 95.8807 563.123 95.7852 562.243 95.4623C561.379 95.1373 560.655 94.5847 560.071 93.8044C559.504 93.0222 559.144 92.0359 558.991 90.8456L558.005 83.1324L560.695 82.7883L561.63 90.0968C561.78 91.2712 562.189 92.1383 562.858 92.698C563.524 93.2419 564.365 93.4488 565.381 93.3189C566.396 93.189 567.158 92.777 567.666 92.0829C568.188 91.371 568.374 90.4278 568.224 89.2533L567.289 81.9449L570.003 81.5978ZM577.033 82.9487L577.962 90.2096C578.025 90.7016 578.182 91.0445 578.432 91.2382C578.697 91.4141 579.107 91.4665 579.662 91.3955L581.328 91.1823L581.618 93.4439L579.475 93.7179C578.253 93.8742 577.28 93.7083 576.556 93.2202C575.833 92.7321 575.389 91.8453 575.224 90.5598L574.295 83.2989L572.748 83.4968L572.465 81.2829L574.012 81.0849L573.595 77.8235L576.333 77.4734L576.75 80.7348L579.94 80.3268L580.223 82.5407L577.033 82.9487ZM594.249 78.4965L588.669 98.8086L585.86 99.1679L587.71 92.4469L580.894 80.2047L583.917 79.818L588.886 89.3446L591.44 78.8558L594.249 78.4965Z" fill="white"/>
<rect x="336.085" y="68.8967" width="317" height="95" rx="47.5" transform="rotate(-7.28888 336.085 68.8967)" stroke="white" stroke-width="3"/>
<path d="M601.222 208.32V210.552H594.142V215.472H599.662V217.704H594.142V225H591.406V208.32H601.222ZM615.733 211.776V225H612.997V223.44C612.565 223.984 611.997 224.416 611.293 224.736C610.605 225.04 609.869 225.192 609.085 225.192C608.045 225.192 607.109 224.976 606.277 224.544C605.461 224.112 604.813 223.472 604.333 222.624C603.869 221.776 603.637 220.752 603.637 219.552V211.776H606.349V219.144C606.349 220.328 606.645 221.24 607.237 221.88C607.829 222.504 608.637 222.816 609.661 222.816C610.685 222.816 611.493 222.504 612.085 221.88C612.693 221.24 612.997 220.328 612.997 219.144V211.776H615.733ZM622.079 213.696C622.479 213.024 623.007 212.504 623.663 212.136C624.335 211.752 625.127 211.56 626.039 211.56V214.392H625.343C624.271 214.392 623.455 214.664 622.895 215.208C622.351 215.752 622.079 216.696 622.079 218.04V225H619.343V211.776H622.079V213.696ZM635.226 211.56C636.266 211.56 637.194 211.776 638.01 212.208C638.842 212.64 639.49 213.28 639.954 214.128C640.418 214.976 640.65 216 640.65 217.2V225H637.938V217.608C637.938 216.424 637.642 215.52 637.05 214.896C636.458 214.256 635.65 213.936 634.626 213.936C633.602 213.936 632.786 214.256 632.178 214.896C631.586 215.52 631.29 216.424 631.29 217.608V225H628.554V211.776H631.29V213.288C631.738 212.744 632.306 212.32 632.994 212.016C633.698 211.712 634.442 211.56 635.226 211.56ZM645.532 210.024C645.036 210.024 644.62 209.856 644.284 209.52C643.948 209.184 643.78 208.768 643.78 208.272C643.78 207.776 643.948 207.36 644.284 207.024C644.62 206.688 645.036 206.52 645.532 206.52C646.012 206.52 646.42 206.688 646.756 207.024C647.092 207.36 647.26 207.776 647.26 208.272C647.26 208.768 647.092 209.184 646.756 209.52C646.42 209.856 646.012 210.024 645.532 210.024ZM646.876 211.776V225H644.14V211.776H646.876ZM653.66 214.008V221.328C653.66 221.824 653.772 222.184 653.996 222.408C654.236 222.616 654.636 222.72 655.196 222.72H656.876V225H654.716C653.484 225 652.54 224.712 651.884 224.136C651.228 223.56 650.9 222.624 650.9 221.328V214.008H649.34V211.776H650.9V208.488H653.66V211.776H656.876V214.008H653.66ZM671.374 211.776V225H668.638V223.44C668.206 223.984 667.638 224.416 666.934 224.736C666.246 225.04 665.51 225.192 664.726 225.192C663.686 225.192 662.75 224.976 661.918 224.544C661.102 224.112 660.454 223.472 659.974 222.624C659.51 221.776 659.278 220.752 659.278 219.552V211.776H661.99V219.144C661.99 220.328 662.286 221.24 662.878 221.88C663.47 222.504 664.278 222.816 665.302 222.816C666.326 222.816 667.134 222.504 667.726 221.88C668.334 221.24 668.638 220.328 668.638 219.144V211.776H671.374ZM677.72 213.696C678.12 213.024 678.648 212.504 679.304 212.136C679.976 211.752 680.768 211.56 681.68 211.56V214.392H680.984C679.912 214.392 679.096 214.664 678.536 215.208C677.992 215.752 677.72 216.696 677.72 218.04V225H674.984V211.776H677.72V213.696ZM696.315 218.064C696.315 218.56 696.283 219.008 696.219 219.408H686.115C686.195 220.464 686.587 221.312 687.291 221.952C687.995 222.592 688.859 222.912 689.883 222.912C691.355 222.912 692.395 222.296 693.003 221.064H695.955C695.555 222.28 694.827 223.28 693.771 224.064C692.731 224.832 691.435 225.216 689.883 225.216C688.619 225.216 687.483 224.936 686.475 224.376C685.483 223.8 684.699 223 684.123 221.976C683.563 220.936 683.283 219.736 683.283 218.376C683.283 217.016 683.555 215.824 684.099 214.8C684.659 213.76 685.435 212.96 686.427 212.4C687.435 211.84 688.587 211.56 689.883 211.56C691.131 211.56 692.243 211.832 693.219 212.376C694.195 212.92 694.955 213.688 695.499 214.68C696.043 215.656 696.315 216.784 696.315 218.064ZM693.459 217.2C693.443 216.192 693.083 215.384 692.379 214.776C691.675 214.168 690.803 213.864 689.763 213.864C688.819 213.864 688.011 214.168 687.339 214.776C686.667 215.368 686.267 216.176 686.139 217.2H693.459Z" fill="white"/>
<rect x="485.906" y="169.5" width="317" height="95" rx="47.5" stroke="white" stroke-width="3"/>
<path d="M143.12 218.391L136.411 211.153L136.668 218.613L133.933 218.706L133.361 202.036L136.095 201.942L136.356 209.546L142.571 201.72L146.001 201.602L139.044 210.198L146.694 218.268L143.12 218.391ZM149.989 203.171C149.493 203.188 149.072 203.034 148.725 202.71C148.377 202.385 148.195 201.975 148.178 201.48C148.161 200.984 148.315 200.562 148.639 200.215C148.963 199.868 149.373 199.686 149.869 199.669C150.349 199.652 150.762 199.806 151.109 200.13C151.457 200.455 151.639 200.865 151.656 201.36C151.673 201.856 151.519 202.277 151.195 202.625C150.871 202.972 150.469 203.154 149.989 203.171ZM151.392 204.875L151.846 218.092L149.112 218.185L148.658 204.969L151.392 204.875ZM158.249 206.873L158.5 214.189C158.517 214.685 158.642 215.041 158.873 215.257C159.12 215.456 159.523 215.547 160.083 215.528L161.762 215.47L161.84 217.749L159.682 217.823C158.45 217.865 157.497 217.609 156.822 217.056C156.146 216.503 155.786 215.579 155.742 214.284L155.491 206.968L153.932 207.022L153.855 204.791L155.414 204.737L155.301 201.451L158.06 201.357L158.173 204.643L161.387 204.532L161.463 206.763L158.249 206.873ZM163.222 211.073C163.175 209.714 163.406 208.513 163.915 207.471C164.439 206.413 165.179 205.587 166.135 204.994C167.091 204.401 168.201 204.082 169.464 204.039C171.063 203.984 172.396 204.323 173.461 205.054C174.543 205.77 175.291 206.825 175.707 208.219L172.757 208.32C172.495 207.673 172.093 207.175 171.553 206.825C171.013 206.475 170.343 206.314 169.543 206.342C168.424 206.38 167.542 206.81 166.898 207.633C166.269 208.439 165.979 209.554 166.028 210.977C166.077 212.4 166.443 213.5 167.126 214.277C167.825 215.054 168.734 215.423 169.854 215.384C171.437 215.33 172.46 214.598 172.924 213.19L175.874 213.088C175.537 214.445 174.854 215.541 173.826 216.377C172.798 217.196 171.5 217.633 169.933 217.687C168.669 217.73 167.54 217.489 166.546 216.963C165.551 216.42 164.756 215.647 164.161 214.643C163.581 213.622 163.268 212.432 163.222 211.073ZM185.118 203.502C186.125 203.467 187.028 203.652 187.826 204.057C188.641 204.461 189.286 205.08 189.763 205.912C190.256 206.743 190.523 207.759 190.564 208.958L190.832 216.753L188.121 216.846L187.868 209.459C187.827 208.275 187.5 207.382 186.887 206.779C186.273 206.16 185.455 205.867 184.432 205.903C183.408 205.938 182.604 206.285 182.018 206.946C181.448 207.59 181.183 208.504 181.223 209.687L181.477 217.074L178.743 217.168L178.133 199.419L180.868 199.325L181.076 205.393C181.521 204.818 182.089 204.366 182.783 204.038C183.492 203.709 184.27 203.531 185.118 203.502ZM206.194 209.286C206.211 209.782 206.195 210.23 206.145 210.632L196.046 210.979C196.163 212.032 196.584 212.866 197.309 213.481C198.035 214.097 198.909 214.387 199.932 214.352C201.404 214.301 202.422 213.65 202.987 212.398L205.937 212.297C205.579 213.526 204.886 214.55 203.858 215.37C202.845 216.173 201.563 216.601 200.012 216.654C198.748 216.698 197.603 216.457 196.577 215.932C195.566 215.39 194.755 214.618 194.144 213.614C193.548 212.594 193.227 211.404 193.181 210.045C193.134 208.686 193.365 207.485 193.874 206.443C194.398 205.384 195.146 204.558 196.118 203.965C197.106 203.37 198.248 203.051 199.543 203.006C200.79 202.964 201.911 203.197 202.905 203.708C203.899 204.218 204.685 204.959 205.263 205.932C205.84 206.889 206.15 208.007 206.194 209.286ZM203.31 208.52C203.26 207.514 202.872 206.718 202.148 206.135C201.423 205.551 200.542 205.278 199.502 205.313C198.559 205.346 197.762 205.677 197.111 206.308C196.46 206.923 196.088 207.744 195.995 208.772L203.31 208.52ZM215.33 202.465C216.37 202.429 217.304 202.613 218.135 203.017C218.981 203.42 219.651 204.037 220.144 204.869C220.636 205.7 220.903 206.716 220.945 207.915L221.212 215.711L218.502 215.804L218.248 208.416C218.207 207.233 217.881 206.339 217.268 205.736C216.654 205.117 215.835 204.825 214.812 204.86C213.789 204.895 212.984 205.243 212.398 205.903C211.828 206.547 211.563 207.461 211.604 208.644L211.858 216.032L209.123 216.126L208.67 202.909L211.404 202.815L211.456 204.327C211.885 203.767 212.438 203.324 213.115 202.997C213.808 202.669 214.547 202.491 215.33 202.465ZM233.069 198.614L233.434 209.239C233.477 210.503 233.837 211.443 234.515 212.06C235.209 212.677 236.147 212.965 237.33 212.924C238.53 212.883 239.446 212.531 240.08 211.869C240.729 211.206 241.033 210.243 240.989 208.98L240.624 198.354L243.359 198.261L243.722 208.838C243.769 210.197 243.512 211.359 242.953 212.323C242.394 213.286 241.626 214.017 240.651 214.515C239.675 215.013 238.588 215.282 237.389 215.323C236.189 215.365 235.086 215.17 234.079 214.741C233.087 214.31 232.288 213.633 231.68 212.71C231.072 211.786 230.744 210.645 230.698 209.285L230.334 198.708L233.069 198.614ZM250.304 203.713L250.555 211.029C250.572 211.525 250.697 211.881 250.928 212.097C251.175 212.297 251.579 212.387 252.138 212.368L253.817 212.31L253.895 214.589L251.737 214.663C250.505 214.705 249.552 214.45 248.877 213.896C248.201 213.343 247.841 212.419 247.797 211.124L247.546 203.808L245.987 203.862L245.91 201.631L247.469 201.577L247.357 198.291L250.115 198.197L250.228 201.483L253.442 201.372L253.518 203.603L250.304 203.713ZM268.291 207.154C268.308 207.65 268.291 208.099 268.241 208.501L258.143 208.848C258.259 209.9 258.68 210.734 259.405 211.35C260.131 211.965 261.005 212.255 262.029 212.22C263.5 212.17 264.518 211.518 265.083 210.266L268.034 210.165C267.676 211.394 266.982 212.418 265.954 213.238C264.941 214.041 263.659 214.47 262.108 214.523C260.844 214.566 259.7 214.325 258.673 213.8C257.662 213.259 256.851 212.486 256.24 211.482C255.645 210.462 255.324 209.273 255.277 207.913C255.23 206.554 255.461 205.354 255.97 204.311C256.494 203.253 257.242 202.427 258.214 201.833C259.202 201.239 260.344 200.919 261.639 200.875C262.887 200.832 264.007 201.066 265.001 201.576C265.995 202.086 266.781 202.828 267.359 203.8C267.936 204.757 268.247 205.875 268.291 207.154ZM265.407 206.389C265.356 205.382 264.969 204.587 264.244 204.003C263.52 203.42 262.638 203.146 261.598 203.182C260.655 203.214 259.858 203.546 259.207 204.176C258.556 204.791 258.184 205.612 258.091 206.64L265.407 206.389ZM277.426 200.333C278.466 200.297 279.401 200.481 280.231 200.885C281.077 201.288 281.747 201.906 282.24 202.737C282.733 203.569 283 204.584 283.041 205.784L283.308 213.579L280.598 213.672L280.344 206.284C280.304 205.101 279.977 204.208 279.364 203.604C278.75 202.985 277.932 202.693 276.908 202.728C275.885 202.763 275.08 203.111 274.495 203.772C273.924 204.416 273.66 205.329 273.7 206.512L273.954 213.9L271.219 213.994L270.766 200.778L273.5 200.684L273.552 202.195C273.981 201.636 274.534 201.193 275.211 200.865C275.905 200.537 276.643 200.36 277.426 200.333ZM291.601 213.511C290.561 213.546 289.62 213.394 288.776 213.055C287.947 212.699 287.282 212.21 286.78 211.587C286.278 210.948 285.997 210.229 285.938 209.43L288.768 209.333C288.835 209.891 289.115 210.354 289.608 210.721C290.116 211.072 290.738 211.235 291.474 211.21C292.241 211.183 292.828 211.019 293.234 210.717C293.655 210.398 293.858 210.007 293.842 209.543C293.825 209.048 293.573 208.688 293.085 208.465C292.613 208.241 291.86 208.002 290.827 207.75C289.826 207.512 289.009 207.276 288.377 207.041C287.745 206.807 287.187 206.434 286.706 205.922C286.24 205.41 285.992 204.722 285.962 203.858C285.938 203.155 286.124 202.508 286.52 201.918C286.916 201.312 287.491 200.828 288.247 200.466C289.019 200.103 289.909 199.905 290.916 199.87C292.42 199.818 293.64 200.161 294.578 200.897C295.531 201.617 296.062 202.631 296.171 203.94L293.437 204.034C293.369 203.444 293.112 202.98 292.669 202.643C292.225 202.307 291.635 202.151 290.9 202.176C290.18 202.201 289.633 202.355 289.259 202.64C288.884 202.925 288.705 203.292 288.72 203.74C288.732 204.091 288.87 204.383 289.134 204.614C289.398 204.845 289.717 205.026 290.089 205.157C290.462 205.273 291.011 205.422 291.738 205.605C292.706 205.828 293.499 206.065 294.115 206.316C294.748 206.55 295.297 206.916 295.762 207.412C296.227 207.908 296.483 208.58 296.528 209.427C296.553 210.179 296.369 210.857 295.973 211.463C295.578 212.069 295.002 212.553 294.246 212.915C293.506 213.277 292.624 213.475 291.601 213.511ZM300.486 198.005C299.991 198.022 299.569 197.868 299.222 197.544C298.875 197.219 298.692 196.809 298.675 196.314C298.658 195.818 298.812 195.396 299.136 195.049C299.461 194.702 299.87 194.52 300.366 194.503C300.846 194.486 301.259 194.64 301.607 194.964C301.954 195.289 302.136 195.699 302.153 196.194C302.17 196.69 302.017 197.112 301.692 197.459C301.368 197.806 300.966 197.988 300.486 198.005ZM301.89 199.709L302.343 212.926L299.609 213.019L299.155 199.803L301.89 199.709ZM308.059 194.959L308.668 212.709L305.933 212.802L305.324 195.053L308.059 194.959ZM317.062 212.637C316.023 212.672 315.081 212.52 314.237 212.181C313.408 211.825 312.743 211.336 312.242 210.713C311.739 210.074 311.458 209.355 311.399 208.556L314.229 208.459C314.297 209.017 314.577 209.48 315.07 209.847C315.578 210.198 316.2 210.361 316.935 210.336C317.703 210.309 318.29 210.145 318.696 209.843C319.117 209.524 319.32 209.133 319.304 208.669C319.287 208.174 319.034 207.814 318.546 207.591C318.074 207.367 317.322 207.128 316.288 206.876C315.288 206.638 314.471 206.402 313.839 206.167C313.206 205.933 312.649 205.56 312.167 205.048C311.701 204.536 311.454 203.848 311.424 202.984C311.4 202.281 311.586 201.634 311.982 201.044C312.377 200.438 312.953 199.954 313.709 199.592C314.481 199.229 315.371 199.031 316.378 198.996C317.881 198.944 319.102 199.287 320.039 200.023C320.993 200.743 321.524 201.757 321.633 203.066L318.898 203.16C318.83 202.57 318.574 202.106 318.13 201.769C317.686 201.433 317.097 201.277 316.361 201.302C315.642 201.327 315.095 201.481 314.72 201.766C314.346 202.051 314.166 202.418 314.181 202.866C314.194 203.217 314.332 203.509 314.596 203.74C314.86 203.971 315.178 204.152 315.551 204.283C315.923 204.399 316.473 204.548 317.199 204.731C318.167 204.954 318.96 205.191 319.577 205.442C320.209 205.676 320.758 206.042 321.224 206.538C321.689 207.035 321.944 207.706 321.989 208.553C322.015 209.305 321.83 209.983 321.435 210.589C321.039 211.195 320.464 211.679 319.708 212.041C318.967 212.403 318.086 212.601 317.062 212.637Z" fill="white"/>
<rect x="68.3916" y="165.423" width="317" height="95" rx="47.5" transform="rotate(-1.96596 68.3916 165.423)" stroke="white" stroke-width="3"/>
</svg>
