<svg width="18" height="18" viewBox="0 0 18 18" fill="none" xmlns="http://www.w3.org/2000/svg">
<path opacity="0.7" d="M14.6303 10.8675C15.1207 9.94639 15.3765 8.91856 15.375 7.875C15.375 4.35413 12.5209 1.5 9.00001 1.5C5.47913 1.5 2.62501 4.35413 2.62501 7.875C2.62243 9.37885 3.15402 10.8348 4.12501 11.9831L4.13251 11.9925C4.13513 11.9948 4.13738 11.9978 4.13926 12H4.12501L7.90801 16.0162C8.04825 16.1651 8.21744 16.2837 8.4052 16.3648C8.59296 16.4459 8.79531 16.4877 8.99982 16.4877C9.20433 16.4877 9.40669 16.4459 9.59444 16.3648C9.7822 16.2837 9.9514 16.1651 10.0916 16.0162L13.875 12H13.8608L13.8668 11.9929L13.8675 11.9921C13.8945 11.9599 13.9215 11.9276 13.9481 11.8946C14.2082 11.5749 14.4368 11.2308 14.6306 10.8671L14.6303 10.8675ZM9.00151 10.3125C8.40477 10.3125 7.83248 10.0754 7.41052 9.65349C6.98856 9.23153 6.75151 8.65924 6.75151 8.0625C6.75151 7.46576 6.98856 6.89347 7.41052 6.47151C7.83248 6.04955 8.40477 5.8125 9.00151 5.8125C9.59825 5.8125 10.1705 6.04955 10.5925 6.47151C11.0145 6.89347 11.2515 7.46576 11.2515 8.0625C11.2515 8.65924 11.0145 9.23153 10.5925 9.65349C10.1705 10.0754 9.59825 10.3125 9.00151 10.3125Z" fill="#3300FF"/>
</svg>
