<svg width="183" height="41" viewBox="0 0 183 41" fill="none" xmlns="http://www.w3.org/2000/svg">
<path d="M3.60119 13.068C3.56519 13.356 3.06119 13.356 2.37719 13.176C1.22519 12.888 0.505187 11.412 0.505187 9.936C0.505187 9.252 0.685187 8.532 1.04519 7.992C3.38519 4.536 9.25319 3.276 14.8332 2.844C16.8132 2.628 18.8292 2.484 21.0972 2.412C21.2772 1.656 21.4212 1.08 21.6732 0.791998C21.8892 0.684 22.1772 0.719999 22.5732 1.008C22.8972 1.224 23.0412 1.584 22.8972 1.728C22.7892 1.872 22.7172 2.088 22.6092 2.376H24.4092C26.7492 2.376 29.0892 2.412 31.4652 2.412C34.7772 2.412 38.1252 2.304 41.4372 1.836C43.6692 1.512 42.0132 3.096 40.4292 3.276C37.8372 3.636 34.4172 3.708 30.8892 3.708C29.1972 3.708 27.4692 3.672 25.8132 3.672C24.7332 3.672 23.6532 3.672 22.6452 3.708H22.2492C21.9972 4.716 21.7812 5.976 21.6012 7.452C21.2052 10.512 20.8452 14.4 20.5932 18.324C20.3412 22.212 20.0892 27.216 20.0532 30.312V31.5C20.0532 32.544 20.0892 33.408 20.1252 34.128C20.1252 35.424 20.2332 35.856 20.2692 35.928L20.3412 36.144C20.4492 36.324 20.2332 36.396 20.0172 36.396C19.7292 36.36 19.2612 36.072 19.0812 35.784C19.1172 35.748 19.0812 35.712 19.0812 35.676C18.8292 35.28 18.7932 34.452 18.7572 33.552C18.7212 32.94 18.6852 32.22 18.6852 31.428C18.6852 30.888 18.7212 30.276 18.7212 29.664C18.7572 26.568 19.0092 21.564 19.2612 17.676C19.5492 13.752 19.8732 9.864 20.2692 6.804C20.4492 5.688 20.5932 4.644 20.7012 3.78C18.5772 3.888 17.1372 3.996 15.6612 4.14C10.0452 4.608 4.24919 5.544 1.94519 8.676C1.62119 9.288 1.40519 9.756 1.40519 10.188C1.40519 10.98 2.01719 11.736 3.60119 13.068ZM28.0961 25.92C27.9521 25.596 27.8801 24.66 28.3841 20.124C28.3841 19.872 28.7441 19.872 29.1041 20.052C29.4281 20.232 29.6441 20.592 29.6441 20.808L29.6081 22.212C30.5081 21.06 33.1721 18.972 35.1521 19.296C35.9801 19.44 36.4841 20.196 36.2321 20.484C35.7281 21.06 35.2241 20.844 35.2601 20.556L35.2961 20.268C33.4961 20.232 30.5081 22.428 29.6441 24.912C29.5361 25.2 29.5361 25.416 29.3921 26.46C29.4281 26.928 28.2401 26.46 28.0961 25.92ZM42.9396 26.676C40.8156 26.784 38.0796 26.388 37.3596 24.156C37.2516 23.832 37.1796 23.472 37.1796 23.112C37.1796 21.528 38.2596 19.908 40.0236 19.836C41.1396 19.836 42.1836 20.916 41.7876 21.96C41.3196 23.112 39.7716 23.976 38.5116 23.976C38.6196 24.66 39.8796 25.812 41.1396 25.812C44.5236 25.812 47.0436 23.292 48.5556 21.708C49.3836 20.844 49.2396 21.672 48.7356 22.68C47.7276 24.768 45.4236 26.532 42.9396 26.676ZM40.5996 21.06C39.8436 20.304 38.4396 22.212 38.4756 23.112C39.9876 22.428 40.9956 21.456 40.5996 21.06ZM48.2724 25.272C48.2364 24.984 48.2004 24.624 48.2724 24.192L48.6324 20.592C48.6324 20.34 48.9924 20.304 49.3524 20.448C49.6404 20.628 49.9644 20.952 49.9284 21.168L49.8564 22.392C51.0804 21.492 53.6724 20.196 55.6884 20.412C56.3724 20.484 57.0204 21.132 57.0204 21.672C57.0204 22.284 56.6244 23.652 57.0924 24.336C57.4524 24.624 57.8484 24.732 58.3164 24.732C60.5484 24.732 63.6804 21.888 64.8324 21.312C64.9764 21.24 65.1204 22.032 64.5804 22.716C63.7164 23.832 61.3764 25.74 58.8564 25.74C57.8124 25.74 56.6604 25.308 56.0124 24.372C55.6524 23.832 55.5444 23.22 55.5444 22.572C55.5444 22.176 55.5804 21.78 55.6524 21.348C52.9884 21.636 50.2524 23.364 49.5684 24.876L49.5324 25.704C49.5684 26.172 48.3084 25.848 48.2724 25.272ZM74.2096 34.056C73.8136 33.948 73.4176 33.66 73.1656 33.372C72.6616 32.796 72.3736 31.968 72.2296 31.176C72.0496 30.312 71.9056 29.196 71.8696 27.972C71.7976 26.964 71.7616 25.848 71.7616 24.696C71.7616 23.76 71.7976 22.752 71.7976 21.78V20.484C71.0416 22.5 69.5656 25.776 67.0456 25.956C66.3616 25.956 65.6776 25.848 64.8496 25.236C63.9856 24.552 63.6256 23.76 63.6256 23.004C63.6256 22.32 63.9136 21.636 64.3816 21.168C65.1016 20.484 66.1456 19.98 67.6936 19.98C68.4136 19.98 69.1336 20.052 70.1056 20.304L70.3936 20.412C71.1496 18.432 71.6176 16.596 72.0496 14.688L72.1216 13.392C72.3736 10.332 73.0576 5.184 73.0936 5.112C73.2016 4.572 74.3896 5.22 74.4616 5.76C74.4256 7.38 74.0296 11.628 73.8496 13.32C73.7776 14.04 73.4896 15.048 73.4536 15.66C73.3096 17.46 73.2376 18.864 73.2016 20.232C73.1296 21.924 73.0936 23.616 73.0936 25.236C73.0936 26.424 73.0936 27.54 73.2016 28.584C73.2376 29.772 73.3456 30.852 73.5256 31.68C73.7416 32.436 73.8496 32.868 73.9576 33.048L74.0296 33.12H74.0656C74.2816 33.228 74.5696 33.48 74.6416 33.696C74.7496 33.984 74.6056 34.128 74.2096 34.056ZM66.2896 24.984C68.0536 24.804 69.2056 22.824 69.9616 21.312L69.9976 21.24C69.4576 21.168 68.9536 21.132 68.5216 21.132C66.9736 21.132 66.1096 21.528 65.5696 22.104C65.1016 22.608 64.9216 23.148 64.9216 23.616C64.9216 24.084 65.1016 24.48 65.3536 24.66C65.6056 24.876 65.8936 24.984 66.2896 24.984ZM77.0412 25.416C76.5012 24.84 76.2492 23.616 76.2492 22.428C76.2492 21.312 76.4652 20.196 76.8612 19.584C76.8972 19.404 77.2572 19.368 77.6892 19.476C78.0852 19.62 78.3012 19.908 78.2652 20.088C77.9772 20.376 77.2572 24.444 77.7972 24.912C78.0852 25.128 78.4452 25.236 78.8412 25.236C81.0732 25.236 84.8892 22.356 85.9692 21.276C86.1132 21.132 86.4732 21.348 86.0412 22.14C85.3572 23.4 82.0812 26.244 79.5972 26.352C78.6972 26.388 77.7252 26.172 77.0412 25.416ZM77.7972 17.064C77.3652 16.92 77.1492 16.596 77.3292 16.452C77.4012 16.344 77.6532 15.624 77.7252 15.444L77.7972 14.904C77.7972 14.688 78.1932 14.616 78.5532 14.76C79.0212 14.868 79.3092 15.156 79.2372 15.336C79.2372 15.48 79.2372 15.732 79.1292 15.948C79.0572 16.128 78.7692 16.92 78.6612 17.1C78.5532 17.244 78.1212 17.244 77.7972 17.064ZM85.2568 25.272C85.2208 24.984 85.1848 24.624 85.2568 24.192L85.6168 20.592C85.6168 20.34 85.9768 20.304 86.3368 20.448C86.6248 20.628 86.9488 20.952 86.9128 21.168L86.8408 22.392C88.0648 21.492 90.6568 20.196 92.6728 20.412C93.3568 20.484 94.0048 21.132 94.0048 21.672C94.0048 22.284 93.6088 23.652 94.0768 24.336C94.4368 24.624 94.8328 24.732 95.3008 24.732C97.5328 24.732 100.665 21.888 101.817 21.312C101.961 21.24 102.105 22.032 101.565 22.716C100.701 23.832 98.3608 25.74 95.8408 25.74C94.7968 25.74 93.6448 25.308 92.9968 24.372C92.6368 23.832 92.5288 23.22 92.5288 22.572C92.5288 22.176 92.5648 21.78 92.6368 21.348C89.9728 21.636 87.2368 23.364 86.5528 24.876L86.5168 25.704C86.5528 26.172 85.2928 25.848 85.2568 25.272ZM101.438 39.024C100.466 38.016 99.8899 36.72 100.07 35.424C100.61 32.652 103.49 29.268 107.126 26.568L108.026 25.92L107.99 25.776L107.918 22.824V22.644L107.81 22.716C107.486 23.112 107.054 23.544 106.586 23.94C105.974 24.444 105.362 24.912 104.75 25.2C104.426 25.308 104.03 25.452 103.562 25.452C103.238 25.452 102.878 25.38 102.518 25.2C102.374 25.128 102.266 25.056 102.194 24.984C101.762 24.66 101.402 24.3 101.15 23.94C100.826 23.472 100.682 23.004 100.682 22.572C100.682 22.068 100.862 21.564 101.222 21.204C101.834 20.736 102.518 20.376 103.706 20.376C104.642 20.376 105.83 20.592 107.162 21.096L107.198 21.132L107.27 21.096C107.522 20.772 107.666 20.484 107.774 20.34C107.99 19.98 108.998 20.556 109.034 21.06C109.07 21.132 109.25 22.824 109.286 24.912V25.056L109.322 25.02C110.294 24.444 115.01 22.284 115.694 22.752C116.054 23.004 115.982 23.112 115.694 23.184C114.254 23.616 111.878 24.912 110.366 25.812L109.322 26.532L109.286 26.964L109.178 30.312C108.89 34.848 107.738 39.564 104.606 40.212C103.706 40.392 102.446 40.032 101.438 39.024ZM103.814 39.348C106.946 38.7 107.99 32.148 107.918 27.504L107.162 28.152C104.102 30.672 101.798 33.732 101.402 36.144C101.186 37.26 101.726 38.16 102.158 38.664C102.698 39.168 103.382 39.456 103.814 39.348ZM102.914 24.372C103.166 24.372 103.418 24.3 103.706 24.156C104.21 23.904 104.858 23.472 105.434 22.968L106.226 22.212L106.586 21.816L106.334 21.744C105.65 21.564 105.038 21.456 104.498 21.456C103.526 21.456 102.806 21.744 102.41 22.14C102.122 22.464 102.014 22.788 102.014 23.148C102.014 23.508 102.158 23.868 102.374 24.156L102.626 24.336C102.626 24.336 102.698 24.372 102.914 24.372ZM129.934 17.352C131.734 17.496 136.702 18.432 142.21 20.772C146.278 14.472 149.842 7.92 152.614 1.908L152.65 1.872H152.722V1.8C153.082 1.476 154.198 2.304 153.946 2.7L153.874 2.808H153.838C153.802 3.456 153.766 4.14 153.766 4.788C153.766 9.792 154.81 14.904 156.322 22.68C159.526 22.32 164.026 21.672 164.602 21.636C164.746 21.492 164.422 22.32 164.026 22.608C163.234 23.148 159.238 23.58 156.538 23.796C157.402 27.792 158.374 31.392 159.454 35.424C159.526 35.676 158.662 36.468 158.302 35.892C155.386 30.816 151.246 26.424 146.782 24.048L146.674 24.012C144.91 23.976 143.326 23.904 141.814 23.796C135.37 33.048 132.346 36.324 129.502 35.46C129.214 35.172 129.178 34.812 129.538 34.848C132.562 35.1 136.486 29.232 140.266 23.688C132.238 22.932 128.35 21.204 127.378 19.764C127.09 19.368 126.982 18.972 126.982 18.612C126.982 18 127.342 17.496 128.026 17.388C128.566 17.28 129.178 17.28 129.934 17.352ZM146.674 22.968C148.618 23.04 151.606 22.86 154.99 22.788H155.026C153.766 17.244 152.362 9 152.434 5.112C149.878 10.908 147.286 14.976 143.866 20.844L143.506 21.348C144.55 21.852 145.63 22.392 146.674 22.968ZM128.35 19.224C129.034 20.448 135.01 22.14 140.95 22.644L141.742 21.456C136.27 19.008 132.022 18.432 130.438 18.252C129.97 18.18 127.846 18.108 128.35 19.224ZM154.738 23.904C152.326 23.94 150.166 24.084 148.546 24.084C151.426 25.92 154.198 28.188 156.502 30.996L157.366 32.04C156.61 29.268 155.89 26.604 155.278 23.904H154.738ZM144.55 22.788L143.038 22.032C142.894 22.284 142.714 22.536 142.534 22.752C143.218 22.788 143.902 22.788 144.55 22.788ZM173.983 34.056C173.587 33.948 173.191 33.66 172.939 33.372C172.435 32.796 172.147 31.968 172.003 31.176C171.823 30.312 171.679 29.196 171.643 27.972C171.571 26.964 171.535 25.848 171.535 24.696C171.535 23.76 171.571 22.752 171.571 21.78V20.484C170.815 22.5 169.339 25.776 166.819 25.956C166.135 25.956 165.451 25.848 164.623 25.236C163.759 24.552 163.399 23.76 163.399 23.004C163.399 22.32 163.687 21.636 164.155 21.168C164.875 20.484 165.919 19.98 167.467 19.98C168.187 19.98 168.907 20.052 169.879 20.304L170.167 20.412C170.923 18.432 171.391 16.596 171.823 14.688L171.895 13.392C172.147 10.332 172.831 5.184 172.867 5.112C172.975 4.572 174.163 5.22 174.235 5.76C174.199 7.38 173.803 11.628 173.623 13.32C173.551 14.04 173.263 15.048 173.227 15.66C173.083 17.46 173.011 18.864 172.975 20.232C172.903 21.924 172.867 23.616 172.867 25.236C172.867 26.424 172.867 27.54 172.975 28.584C173.011 29.772 173.119 30.852 173.299 31.68C173.515 32.436 173.623 32.868 173.731 33.048L173.803 33.12H173.839C174.055 33.228 174.343 33.48 174.415 33.696C174.523 33.984 174.379 34.128 173.983 34.056ZM166.063 24.984C167.827 24.804 168.979 22.824 169.735 21.312L169.771 21.24C169.231 21.168 168.727 21.132 168.295 21.132C166.747 21.132 165.883 21.528 165.343 22.104C164.875 22.608 164.695 23.148 164.695 23.616C164.695 24.084 164.875 24.48 165.127 24.66C165.379 24.876 165.667 24.984 166.063 24.984ZM176.491 26.316C176.059 26.1 175.735 25.2 176.527 25.38C176.851 25.452 177.247 25.488 177.715 25.488C178.867 25.488 180.307 25.308 181.243 25.092C180.343 24.624 178.975 23.94 178.255 23.544C177.319 23.004 176.311 22.644 176.167 21.564C175.879 19.656 179.803 18.504 181.639 18.252C182.215 18.18 182.935 18.864 182.647 19.224C181.315 19.692 178.039 20.304 177.643 21.24C177.427 21.744 178.255 22.104 178.975 22.536C180.343 23.292 181.423 23.832 182.143 24.408C182.935 25.092 182.251 26.1 181.315 26.352C180.667 26.532 179.731 26.64 178.795 26.64C177.895 26.64 177.031 26.532 176.491 26.316Z" fill="black"/>
</svg>
