<svg width="225" height="59" viewBox="0 0 225 59" fill="none" xmlns="http://www.w3.org/2000/svg">
<path d="M176.562 8.20312C181.147 16.9 189.245 18.2562 199.072 18.4578C204.87 18.5797 217.627 18.0844 217.627 21.1922C217.627 23.5234 209.131 30.8281 209.131 32.3234C209.131 32.3234 215.022 27.3438 218.311 24.4141C221.6 21.4844 223.438 19.7516 223.438 18.0172C223.438 14.4891 209.797 15.1359 198.78 15.1359C187.762 15.1359 181.739 13.05 176.562 8.20312ZM188.867 35.2047C187.042 35.2047 185.547 36.6516 185.547 38.4766C185.547 40.3016 187.042 41.7969 188.867 41.7969C190.692 41.7969 192.139 40.3016 192.139 38.4766C192.142 38.046 192.06 37.6192 191.896 37.2208C191.733 36.8224 191.492 36.4605 191.188 36.156C190.883 35.8516 190.521 35.6107 190.123 35.4474C189.725 35.2841 189.298 35.2016 188.867 35.2047ZM204.102 35.2047C203.671 35.2016 203.244 35.2841 202.846 35.4474C202.447 35.6107 202.085 35.8516 201.781 36.156C201.477 36.4605 201.236 36.8224 201.072 37.2208C200.909 37.6192 200.827 38.046 200.83 38.4766C200.83 40.3016 202.277 41.7969 204.102 41.7969C204.981 41.794 205.824 41.4432 206.446 40.8212C207.068 40.1991 207.419 39.3563 207.422 38.4766C207.422 36.6516 205.927 35.2047 204.102 35.2047Z" fill="#FF5208"/>
<path d="M12.312 41.648C10.56 41.648 9.012 41.312 7.668 40.64C6.348 39.944 5.22 39.032 4.284 37.904C3.372 36.752 2.688 35.468 2.232 34.052C1.776 32.612 1.548 31.148 1.548 29.66V18.896C1.548 18.416 1.584 17.972 1.656 17.564C1.752 17.132 1.992 16.784 2.376 16.52C2.76 16.256 3.396 16.124 4.284 16.124C5.196 16.124 5.844 16.256 6.228 16.52C6.612 16.784 6.84 17.132 6.912 17.564C7.008 17.972 7.056 18.428 7.056 18.932V29.66C7.056 30.716 7.224 31.736 7.56 32.72C7.92 33.704 8.496 34.52 9.288 35.168C10.08 35.816 11.124 36.14 12.42 36.14C13.524 36.14 14.472 35.876 15.264 35.348C16.056 34.796 16.668 34.04 17.1 33.08C17.532 32.096 17.748 30.944 17.748 29.624V18.68C17.748 18.248 17.796 17.84 17.892 17.456C17.988 17.072 18.228 16.76 18.612 16.52C18.996 16.256 19.632 16.124 20.52 16.124C21.408 16.124 22.032 16.268 22.392 16.556C22.776 16.82 23.004 17.156 23.076 17.564C23.172 17.972 23.22 18.428 23.22 18.932V29.732C23.22 31.244 22.98 32.708 22.5 34.124C22.044 35.54 21.348 36.812 20.412 37.94C19.5 39.068 18.36 39.968 16.992 40.64C15.648 41.312 14.088 41.648 12.312 41.648ZM31.9852 41.324C31.1452 41.324 30.5332 41.192 30.1492 40.928C29.7652 40.664 29.5252 40.328 29.4292 39.92C29.3332 39.488 29.2852 39.032 29.2852 38.552V18.788C29.2852 18.332 29.3332 17.912 29.4292 17.528C29.5252 17.144 29.7652 16.832 30.1492 16.592C30.5572 16.328 31.2052 16.196 32.0932 16.196C32.9572 16.196 33.5572 16.304 33.8932 16.52C34.2292 16.712 34.5292 16.988 34.7932 17.348L45.3052 31.784V18.788C45.3052 18.332 45.3532 17.912 45.4492 17.528C45.5692 17.144 45.8212 16.832 46.2052 16.592C46.5892 16.328 47.2132 16.196 48.0772 16.196C48.9652 16.196 49.5892 16.328 49.9492 16.592C50.3332 16.856 50.5612 17.204 50.6332 17.636C50.7292 18.044 50.7772 18.476 50.7772 18.932V38.588C50.7772 39.044 50.7292 39.488 50.6332 39.92C50.5372 40.328 50.2972 40.664 49.9132 40.928C49.5292 41.192 48.8932 41.324 48.0052 41.324C47.3332 41.324 46.8052 41.264 46.4212 41.144C46.0612 41.024 45.7492 40.796 45.4852 40.46L34.7572 25.916V38.588C34.7572 39.044 34.7092 39.488 34.6132 39.92C34.5172 40.328 34.2772 40.664 33.8932 40.928C33.5092 41.192 32.8732 41.324 31.9852 41.324ZM59.6194 41.324C58.7554 41.324 58.1314 41.204 57.7474 40.964C57.3634 40.7 57.1234 40.352 57.0274 39.92C56.9554 39.488 56.9194 39.044 56.9194 38.588V18.896C56.9194 18.416 56.9554 17.972 57.0274 17.564C57.1234 17.156 57.3634 16.82 57.7474 16.556C58.1314 16.292 58.7674 16.16 59.6554 16.16C60.5674 16.16 61.2034 16.292 61.5634 16.556C61.9474 16.82 62.1754 17.156 62.2474 17.564C62.3434 17.972 62.3914 18.428 62.3914 18.932V38.624C62.3914 39.08 62.3434 39.524 62.2474 39.956C62.1514 40.364 61.9114 40.7 61.5274 40.964C61.1674 41.204 60.5314 41.324 59.6194 41.324ZM71.1186 41.324C70.2546 41.324 69.6306 41.192 69.2466 40.928C68.8866 40.664 68.6586 40.328 68.5626 39.92C68.4666 39.488 68.4186 39.032 68.4186 38.552V18.86C68.4186 18.404 68.4666 17.984 68.5626 17.6C68.6586 17.192 68.8986 16.856 69.2826 16.592C69.6666 16.328 70.3026 16.196 71.1906 16.196C71.7906 16.196 72.2466 16.232 72.5586 16.304C72.8706 16.376 73.0986 16.484 73.2426 16.628C73.3866 16.748 73.5426 16.892 73.7106 17.06L81.8106 28.004H81.2706L89.4066 17.06C89.5986 16.82 89.7906 16.64 89.9826 16.52C90.1746 16.4 90.4146 16.316 90.7026 16.268C91.0146 16.22 91.4466 16.196 91.9986 16.196C92.8626 16.196 93.4866 16.328 93.8706 16.592C94.2546 16.856 94.4946 17.204 94.5906 17.636C94.6866 18.044 94.7346 18.476 94.7346 18.932V38.624C94.7346 39.08 94.6866 39.512 94.5906 39.92C94.4946 40.328 94.2546 40.664 93.8706 40.928C93.4866 41.192 92.8506 41.324 91.9626 41.324C91.0986 41.324 90.4746 41.192 90.0906 40.928C89.7066 40.664 89.4666 40.316 89.3706 39.884C89.2746 39.452 89.2266 39.008 89.2266 38.552V25.7L83.8626 33.296C83.7666 33.416 83.6346 33.584 83.4666 33.8C83.2986 33.992 83.0586 34.16 82.7466 34.304C82.4586 34.448 82.0626 34.52 81.5586 34.52C81.0306 34.52 80.6106 34.448 80.2986 34.304C80.0106 34.16 79.7826 33.992 79.6146 33.8C79.4466 33.608 79.3026 33.44 79.1826 33.296L73.8546 25.736V38.624C73.8546 39.08 73.8066 39.512 73.7106 39.92C73.6146 40.328 73.3746 40.664 72.9906 40.928C72.6306 41.192 72.0066 41.324 71.1186 41.324ZM123.246 37.508C123.534 38.108 123.69 38.624 123.714 39.056C123.738 39.464 123.606 39.836 123.318 40.172C123.054 40.484 122.61 40.796 121.986 41.108C121.026 41.564 120.282 41.696 119.754 41.504C119.226 41.336 118.734 40.772 118.278 39.812L111.222 25.052L104.202 39.812C103.722 40.748 103.218 41.3 102.69 41.468C102.186 41.66 101.454 41.528 100.494 41.072C99.8703 40.784 99.4143 40.484 99.1263 40.172C98.8623 39.836 98.7423 39.452 98.7663 39.02C98.7903 38.564 98.9583 38.036 99.2703 37.436L108.738 17.744C108.978 17.264 109.326 16.88 109.782 16.592C110.262 16.304 110.754 16.16 111.258 16.16C111.618 16.16 111.954 16.232 112.266 16.376C112.578 16.496 112.854 16.676 113.094 16.916C113.358 17.156 113.574 17.444 113.742 17.78L123.246 37.508ZM105.174 35.456L107.406 30.812H115.074L117.306 35.456H105.174ZM131.526 41.324C130.662 41.324 130.038 41.192 129.654 40.928C129.27 40.664 129.03 40.316 128.934 39.884C128.862 39.452 128.826 39.008 128.826 38.552V18.86C128.826 18.404 128.862 17.972 128.934 17.564C129.03 17.156 129.27 16.82 129.654 16.556C130.038 16.292 130.674 16.16 131.562 16.16H139.05C140.034 16.16 141.042 16.34 142.074 16.7C143.106 17.06 144.054 17.612 144.918 18.356C145.782 19.1 146.478 20.024 147.006 21.128C147.534 22.232 147.798 23.54 147.798 25.052C147.798 26.06 147.642 27.032 147.33 27.968C147.042 28.904 146.598 29.768 145.998 30.56C145.398 31.352 144.654 32.036 143.766 32.612C142.878 33.164 141.858 33.56 140.706 33.8H134.298V38.588C134.298 39.044 134.25 39.488 134.154 39.92C134.058 40.328 133.818 40.664 133.434 40.928C133.05 41.192 132.414 41.324 131.526 41.324ZM146.718 40.604C145.83 41.252 145.122 41.504 144.594 41.36C144.066 41.216 143.514 40.748 142.938 39.956L136.602 30.884L142.758 30.092L147.402 36.752C147.81 37.328 148.062 37.82 148.158 38.228C148.278 38.636 148.218 39.02 147.978 39.38C147.762 39.74 147.342 40.148 146.718 40.604ZM134.298 28.4H139.302C139.638 28.4 139.986 28.34 140.346 28.22C140.706 28.076 141.03 27.872 141.318 27.608C141.606 27.344 141.846 26.996 142.038 26.564C142.23 26.132 142.326 25.616 142.326 25.016C142.326 24.32 142.182 23.72 141.894 23.216C141.63 22.712 141.246 22.328 140.742 22.064C140.238 21.776 139.65 21.632 138.978 21.632H134.298V28.4ZM170.92 16.124C171.328 16.124 171.7 16.16 172.036 16.232C172.372 16.304 172.648 16.508 172.864 16.844C173.104 17.156 173.224 17.708 173.224 18.5C173.224 19.244 173.104 19.784 172.864 20.12C172.648 20.456 172.36 20.66 172 20.732C171.64 20.804 171.256 20.84 170.848 20.84H165.052V38.66C165.052 39.116 165.004 39.548 164.908 39.956C164.836 40.364 164.608 40.7 164.224 40.964C163.864 41.204 163.24 41.324 162.352 41.324C161.488 41.324 160.864 41.204 160.48 40.964C160.096 40.7 159.868 40.364 159.796 39.956C159.724 39.524 159.688 39.08 159.688 38.624V20.84H153.82C153.436 20.84 153.064 20.804 152.704 20.732C152.344 20.636 152.056 20.432 151.84 20.12C151.624 19.784 151.516 19.232 151.516 18.464C151.516 17.696 151.624 17.156 151.84 16.844C152.056 16.508 152.344 16.304 152.704 16.232C153.064 16.16 153.436 16.124 153.82 16.124H170.92Z" fill="#3300FF"/>
</svg>
